<svg width="206" height="68" viewBox="0 0 206 68" fill="none" xmlns="http://www.w3.org/2000/svg">
<path d="M68.0542 63.0977C67.4753 63.2023 67.4991 63.7696 67.7173 64.4266C67.9356 65.0831 68.2209 65.1521 68.6739 64.9764C69.1269 64.8007 70.6954 64.3828 71.3156 64.2787C71.9363 64.1751 71.8935 63.8752 71.8935 63.7268C71.8935 63.5784 71.8238 63.3461 71.6242 63.2878C71.4245 63.2296 70.1527 62.7189 68.0542 63.0977Z" fill="#ED1C24"/>
<path d="M132.057 63.0977C131.478 63.2023 131.502 63.7696 131.72 64.4266C131.938 65.0831 132.224 65.1521 132.677 64.9764C133.13 64.8007 134.698 64.3828 135.318 64.2787C135.939 64.1751 135.896 63.8752 135.896 63.7268C135.896 63.5784 135.827 63.3461 135.627 63.2878C135.427 63.2296 134.156 62.7189 132.057 63.0977V63.0977Z" fill="#ED1C24"/>
<path d="M14.8628 61.085C14.3138 61.0484 13.5765 61.1247 12.9739 61.6343V61.1448H11.8862V67.4879H12.9739V63.6454C12.9739 62.6236 13.7081 62.1578 14.3907 62.1578C14.6667 62.1578 14.8607 62.2114 15.0821 62.3485L15.2317 62.4412L15.8973 61.4266L15.7209 61.3344C15.4887 61.2133 15.2235 61.0989 14.8623 61.0845L14.8628 61.085Z" fill="#4A4B4C"/>
<path d="M22.7905 61.725C22.322 61.2921 21.723 61.0726 21.01 61.0726C20.2969 61.0726 19.7159 61.2859 19.2387 61.7275C18.4668 62.4726 18.409 63.2342 18.409 64.3112C18.409 65.4417 18.5261 66.0296 18.8429 66.4841C19.3635 67.1988 20.0931 67.5616 21.01 67.5616C21.9268 67.5616 22.6316 67.2117 23.1398 66.5212L23.1419 66.5186C23.4386 66.0987 23.6228 65.5834 23.6228 64.3117C23.6228 63.2589 23.5629 62.4577 22.7905 61.7255V61.725ZM21.9985 66.1641C21.7302 66.3785 21.3974 66.4872 21.01 66.4872C20.5477 66.4872 20.1777 66.3367 19.9079 66.0368C19.7944 65.9147 19.6932 65.6792 19.5993 65.317L19.5978 65.3108C19.5085 65.0104 19.4966 64.6523 19.4966 64.3106C19.4966 63.5047 19.5611 63.1538 19.7732 62.8086C20.1106 62.2511 20.6323 62.1341 21.0105 62.1341C21.5945 62.1341 22.0579 62.4005 22.3153 62.8843L22.3169 62.8869C22.483 63.1878 22.5367 63.5367 22.5367 64.323C22.5367 64.6157 22.5367 64.6847 22.5264 64.7569L22.5248 64.7708C22.4913 65.2912 22.4232 65.8276 21.9991 66.1641H21.9985Z" fill="#4A4B4C"/>
<path d="M31.146 61.5286C30.7178 61.2174 30.1193 61.0726 29.2628 61.0726C28.4966 61.0726 27.7608 61.3838 27.2438 61.9264L27.1267 62.0496L27.8568 62.8328L27.9888 62.6957C28.2644 62.4103 28.7839 62.1227 29.3231 62.1227C29.8623 62.1227 30.7885 62.2423 30.7885 63.042V63.732H28.8268C27.4223 63.732 26.7825 64.7337 26.7825 65.6648C26.7825 66.295 27.0684 66.8371 27.589 67.1931C27.9527 67.4348 28.5053 67.5739 29.1049 67.5739C29.7978 67.5739 30.4082 67.4199 30.7874 67.1638C30.7874 67.2065 30.7879 67.255 30.7879 67.3091V67.4894H31.8874V63.1755C31.8874 62.4108 31.6449 61.8723 31.1455 61.5297L31.146 61.5286ZM30.7885 64.7208V65.5679C30.7885 65.857 30.6816 66.0678 30.4551 66.229C30.1791 66.4192 29.7256 66.5238 29.1776 66.5238C28.3361 66.5238 27.8335 66.1801 27.8335 65.6045C27.8335 64.8357 28.6152 64.7213 29.0811 64.7213H30.7885V64.7208Z" fill="#4A4B4C"/>
<path d="M39.0856 63.8948C38.7657 63.8119 38.2296 63.7356 37.6858 63.6959H37.6806C37.4547 63.6856 37.2359 63.6506 36.9717 63.5815C36.6363 63.4785 36.4733 63.2857 36.4733 62.9936C36.4733 62.2536 37.1451 62.098 37.7085 62.098C38.2719 62.098 38.7549 62.2418 39.3085 62.5793L39.4545 62.6679L40.053 61.7986L39.9044 61.6966C39.2853 61.271 38.5877 61.0726 37.708 61.0726C36.2607 61.0726 35.3614 61.8038 35.3614 62.9812C35.3614 63.8871 35.9088 64.5111 36.8623 64.693C37.1157 64.7435 37.3716 64.7687 37.6239 64.7687C37.8349 64.7687 38.0656 64.7883 38.3091 64.827C38.9752 64.9357 39.2347 65.15 39.2347 65.5916C39.2347 66.4898 38.0645 66.5356 37.8298 66.5356C37.0661 66.5356 36.4527 66.3223 35.8995 65.8642L35.7618 65.7498L35.0642 66.5748L35.2144 66.6897C35.9692 67.2679 36.8128 67.561 37.7204 67.561C39.2662 67.561 40.3456 66.7763 40.3456 65.6524C40.3456 64.7151 39.9225 64.1241 39.0851 63.8948H39.0856Z" fill="#4A4B4C"/>
<path d="M45.0769 59.163H43.9893V61.1453H43.3237V62.1465H43.9893V65.991C43.9893 66.9149 44.5594 67.4884 45.4773 67.4884H46.0454V66.4872H45.6713C45.1662 66.4872 45.0774 66.2455 45.0774 65.737V62.1465H46.0454V61.1453H45.0774V59.163H45.0769Z" fill="#4A4B4C"/>
<path d="M51.8062 61.0726C51.1194 61.0726 50.4956 61.322 50.0498 61.7744C49.4895 62.3433 49.2052 63.2048 49.2052 64.3349C49.2052 65.4649 49.5132 66.3326 50.12 66.8881C50.7278 67.4441 51.4909 67.561 52.0239 67.561C52.7875 67.561 53.4505 67.3225 53.9938 66.8525L54.1306 66.7345L53.4268 65.923L53.2911 66.0312C52.8979 66.3455 52.4475 66.5114 51.9878 66.5114C50.6963 66.5114 50.3589 65.5571 50.3207 64.6842H54.4195V63.8634C54.4195 63.0307 54.1502 62.3201 53.6409 61.81C53.1662 61.3344 52.5151 61.0726 51.8067 61.0726H51.8062ZM53.2957 63.6712H50.3346C50.4585 62.6839 50.9878 62.1222 51.8062 62.1222C52.6787 62.1222 53.2029 62.6705 53.2957 63.6712Z" fill="#4A4B4C"/>
<path d="M61.6083 61.6415C61.033 61.1391 60.435 61.0726 60.0099 61.0726C58.5023 61.0726 57.6024 62.2336 57.6024 64.1777C57.6024 65.1702 57.7639 65.9539 58.0817 66.5078C58.4826 67.2066 59.1317 67.5611 60.0099 67.5611C60.4474 67.5611 61.0557 67.4941 61.6083 66.9907V67.4884H62.696V58.7157H61.6083V61.641V61.6415ZM61.6083 64.3112C61.6083 65.7756 61.1409 66.4878 60.1791 66.4878C59.2174 66.4878 58.7019 65.7756 58.7019 64.3112C58.7019 62.8468 59.1715 62.1589 60.1791 62.1589C61.1868 62.1589 61.6083 62.8426 61.6083 64.3112Z" fill="#4A4B4C"/>
<path d="M78.2078 59.163H77.1202V61.1453H76.4546V62.1465H77.1202V65.991C77.1202 66.9149 77.6903 67.4884 78.6082 67.4884H79.1763V66.4872H78.8022C78.2971 66.4872 78.2083 66.2455 78.2083 65.737V62.1465H79.1763V61.1453H78.2083V59.163H78.2078Z" fill="#4A4B4C"/>
<path d="M86.7171 61.725C86.2491 61.2921 85.6495 61.0726 84.9365 61.0726C84.2234 61.0726 83.6424 61.2859 83.1652 61.7275C82.3933 62.4726 82.3355 63.2342 82.3355 64.3112C82.3355 65.4417 82.4526 66.0296 82.7694 66.4841C83.29 67.1988 84.0196 67.5616 84.9365 67.5616C85.8533 67.5616 86.5581 67.2117 87.0664 66.5212L87.0684 66.5186C87.3651 66.0987 87.5493 65.5834 87.5493 64.3117C87.5493 63.2589 87.4894 62.4577 86.7171 61.7255V61.725ZM86.4622 64.323C86.4622 64.6157 86.4622 64.6847 86.4518 64.7569L86.4503 64.7708C86.4168 65.2912 86.3487 65.8276 85.9245 66.1641C85.6562 66.3785 85.3234 66.4872 84.936 66.4872C84.4737 66.4872 84.1037 66.3367 83.8339 66.0368C83.7204 65.9147 83.6192 65.6792 83.5253 65.317L83.5238 65.3108C83.4345 65.0104 83.4226 64.6523 83.4226 64.3106C83.4226 63.5047 83.4871 63.1538 83.6992 62.8086C84.0366 62.2511 84.5583 62.1341 84.9365 62.1341C85.5205 62.1341 85.9839 62.4005 86.2413 62.8843L86.2429 62.8869C86.409 63.1878 86.4627 63.5367 86.4627 64.323H86.4622Z" fill="#4A4B4C"/>
<path d="M95.0725 61.5286C94.6443 61.2174 94.0458 61.0726 93.1893 61.0726C92.4231 61.0726 91.6873 61.3838 91.1703 61.9264L91.0532 62.0496L91.7833 62.8328L91.9154 62.6957C92.1909 62.4103 92.7105 62.1227 93.2496 62.1227C93.7888 62.1227 94.715 62.2423 94.715 63.042V63.732H92.7533C91.3488 63.732 90.709 64.7337 90.709 65.6648C90.709 66.295 90.9949 66.8371 91.5155 67.1931C91.8792 67.4353 92.4318 67.5739 93.0314 67.5739C93.7243 67.5739 94.3347 67.4199 94.7139 67.1638C94.7139 67.2065 94.7145 67.255 94.7145 67.3091V67.4894H95.814V63.1755C95.814 62.4108 95.5715 61.8723 95.072 61.5297L95.0725 61.5286ZM94.715 64.7208V65.5679C94.715 65.857 94.6082 66.0678 94.3817 66.229C94.1056 66.4192 93.6521 66.5238 93.1041 66.5238C92.2626 66.5238 91.7601 66.1801 91.7601 65.6045C91.7601 64.8357 92.5417 64.7213 93.0077 64.7213H94.715V64.7208Z" fill="#4A4B4C"/>
<path d="M103.012 63.8948C102.692 63.8119 102.156 63.7356 101.612 63.6959H101.607C101.381 63.6856 101.162 63.6506 100.898 63.5815C100.563 63.4785 100.4 63.2857 100.4 62.9936C100.4 62.2536 101.072 62.098 101.635 62.098C102.198 62.098 102.681 62.2418 103.235 62.5793L103.381 62.6679L103.98 61.7986L103.831 61.6966C103.212 61.271 102.514 61.0726 101.635 61.0726C100.187 61.0726 99.2879 61.8038 99.2879 62.9812C99.2879 63.8871 99.8353 64.5111 100.789 64.693C101.042 64.7435 101.298 64.7687 101.55 64.7687C101.761 64.7687 101.992 64.7883 102.236 64.827C102.902 64.9357 103.161 65.15 103.161 65.5916C103.161 66.4898 101.991 66.5356 101.756 66.5356C100.993 66.5356 100.379 66.3223 99.8261 65.8642L99.6883 65.7498L98.9907 66.5748L99.1409 66.6897C99.8962 67.2679 100.739 67.561 101.647 67.561C103.193 67.561 104.272 66.7763 104.272 65.6524C104.272 64.7151 103.849 64.1241 103.012 63.8948H103.012Z" fill="#4A4B4C"/>
<path d="M109.004 59.163H107.916V61.1453H107.251V62.1465H107.916V65.991C107.916 66.9149 108.487 67.4884 109.404 67.4884H109.972V66.4872H109.598C109.093 66.4872 109.005 66.2455 109.005 65.737V62.1465H109.972V61.1453H109.005V59.163H109.004Z" fill="#4A4B4C"/>
<path d="M115.733 61.0726C115.046 61.0726 114.422 61.322 113.976 61.7744C113.416 62.3433 113.132 63.2048 113.132 64.3349C113.132 65.4649 113.44 66.3326 114.046 66.8881C114.654 67.4441 115.417 67.561 115.95 67.561C116.714 67.561 117.377 67.3225 117.92 66.8525L118.057 66.7345L117.353 65.923L117.218 66.0312C116.824 66.3455 116.374 66.5114 115.914 66.5114C114.623 66.5114 114.285 65.5571 114.247 64.6842H118.346V63.8634C118.346 63.0307 118.077 62.3201 117.567 61.81C117.093 61.3344 116.442 61.0726 115.733 61.0726H115.733ZM115.733 62.1222C116.605 62.1222 117.129 62.6705 117.222 63.6712H114.261C114.385 62.6839 114.914 62.1222 115.733 62.1222Z" fill="#4A4B4C"/>
<path d="M125.535 61.6415C124.96 61.1391 124.362 61.0726 123.937 61.0726C122.429 61.0726 121.529 62.2336 121.529 64.1777C121.529 65.1702 121.691 65.9539 122.009 66.5078C122.41 67.2066 123.059 67.5611 123.937 67.5611C124.374 67.5611 124.983 67.4941 125.535 66.9907V67.4884H126.623V58.7157H125.535V61.641V61.6415ZM125.535 64.3112C125.535 65.7756 125.068 66.4878 124.106 66.4878C123.144 66.4878 122.629 65.7756 122.629 64.3112C122.629 62.8468 123.099 62.1589 124.106 62.1589C125.114 62.1589 125.535 62.8426 125.535 64.3112Z" fill="#4A4B4C"/>
<path d="M141.156 60.3827V61.1329H140.479V62.1223H141.156V67.4884H142.243V62.1223H143.574V61.1329H142.243V60.5156C142.243 59.9498 142.413 59.7293 142.849 59.7293H143.574V58.7157H142.74C141.792 58.7157 141.156 59.3856 141.156 60.3827H141.156Z" fill="#4A4B4C"/>
<path d="M149.565 61.085C148.808 61.034 148.164 61.2231 147.676 61.6348V61.1453H146.589V67.4889H147.676V63.6465C147.676 62.6247 148.411 62.1588 149.093 62.1588C149.369 62.1588 149.563 62.2124 149.785 62.3495L149.935 62.4422L150.6 61.4277L150.424 61.3354C150.192 61.2143 149.926 61.0999 149.565 61.0855V61.085Z" fill="#4A4B4C"/>
<path d="M155.713 61.0726C155.026 61.0726 154.402 61.322 153.956 61.7744C153.396 62.3433 153.111 63.2043 153.111 64.3349C153.111 65.4654 153.419 66.3326 154.026 66.8881C154.634 67.4441 155.397 67.561 155.93 67.561C156.694 67.561 157.357 67.3225 157.9 66.8525L158.037 66.7345L157.333 65.923L157.197 66.0312C156.804 66.3455 156.354 66.5114 155.894 66.5114C154.603 66.5114 154.265 65.5571 154.227 64.6842H158.326V63.8634C158.326 63.0307 158.056 62.3201 157.547 61.81C157.072 61.3344 156.421 61.0726 155.713 61.0726V61.0726ZM157.203 63.6712H154.241C154.365 62.6839 154.895 62.1222 155.713 62.1222C156.585 62.1222 157.11 62.6705 157.203 63.6712Z" fill="#4A4B4C"/>
<path d="M165.378 63.8948C165.059 63.8119 164.522 63.7356 163.979 63.6959H163.973C163.747 63.6856 163.529 63.6506 163.265 63.5815C162.929 63.4785 162.766 63.2857 162.766 62.9936C162.766 62.2536 163.438 62.098 164.001 62.098C164.565 62.098 165.048 62.2418 165.601 62.5793L165.747 62.6679L166.346 61.7986L166.197 61.6966C165.578 61.271 164.881 61.0726 164.001 61.0726C162.554 61.0726 161.654 61.8038 161.654 62.9812C161.654 63.8871 162.202 64.5111 163.155 64.693C163.408 64.7435 163.664 64.7687 163.917 64.7687C164.127 64.7687 164.358 64.7883 164.601 64.827C165.267 64.9357 165.527 65.15 165.527 65.5916C165.527 66.4898 164.357 66.5356 164.122 66.5356C163.358 66.5356 162.745 66.3223 162.192 65.8642L162.054 65.7498L161.357 66.5748L161.507 66.6897C162.261 67.2679 163.105 67.561 164.013 67.561C165.558 67.561 166.638 66.7763 166.638 65.6524C166.638 64.7151 166.215 64.1241 165.377 63.8948H165.378Z" fill="#4A4B4C"/>
<path d="M174.484 61.6719C174.053 61.3045 173.473 61.085 172.932 61.085C172.29 61.085 171.715 61.286 171.297 61.6461V58.7162H170.21V67.489H171.297V63.6949C171.297 62.7617 171.863 62.1589 172.739 62.1589C173.614 62.1589 174.168 62.7762 174.168 63.6949V67.489H175.255V63.3322C175.255 62.686 174.981 62.0965 174.484 61.6724V61.6719Z" fill="#4A4B4C"/>
<path d="M34.0792 15.2237C40.8394 17.1725 43.0539 17.3539 43.2876 21.3999C43.5213 25.4459 41.4988 33.8187 41.3641 39.8424C41.2294 45.8661 44.3097 39.7656 47.8982 31.7447C51.4867 23.7238 56.0313 15.403 57.1174 14.0097C58.203 12.6164 58.2866 14.8259 55.8383 22.1115C53.3901 29.3971 49.4972 44.2538 44.851 50.903C40.2042 57.5522 35.3186 57.1405 33.6603 52.5874C32.0015 48.0344 31.9107 24.8564 32.1067 20.4523C32.3028 16.0487 32.9952 14.9104 34.0792 15.2232V15.2237Z" fill="#ED1C24"/>
<path d="M13.2824 15.4262C16.5747 12.6524 17.7666 13.9901 19.9037 15.3948C22.0408 16.7994 27.0054 17.7177 28.0992 21.436C29.1931 25.1542 27.0663 30.0103 21.7725 35.3955C16.4788 40.7807 12.6276 40.7472 11.2944 40.94C9.96116 41.1327 9.91472 41.008 9.4906 43.2824C9.06648 45.5569 8.88383 49.4715 11.4832 49.0129C14.0827 48.5548 21.2034 43.8281 25.7578 39.2503C30.3122 34.6726 28.9114 38.5336 25.506 44.7974C22.1007 51.0612 17.7491 55.7791 10.4085 55.6992C3.0674 55.6199 -0.885373 48.088 1.09231 37.0686C3.06947 26.0493 8.12588 19.7701 13.2834 15.4252L13.2824 15.4262ZM11.3728 34.4361C10.4591 36.4127 9.61288 37.6349 12.267 36.0396C14.9206 34.4443 19.1463 30.523 20.2928 28.2284C21.4392 25.9344 21.6539 23.9918 21.1456 23.2729C20.6374 22.5541 20.1189 22.2939 17.0443 25.5464C13.6467 29.14 12.2871 32.4594 11.3733 34.4361H11.3728Z" fill="#ED1C24"/>
<path d="M69.3246 15.9415C72.8511 13.4707 73.9187 14.9089 75.9227 16.498C77.9267 18.0872 82.7896 19.4424 83.548 23.2426C84.3065 27.0433 81.7561 31.6912 76.0042 36.5858C70.2523 41.48 66.4192 41.1049 65.0741 41.1786C63.729 41.2523 63.6939 41.1239 63.069 43.3515C62.4442 45.5796 61.9138 49.4623 64.5437 49.2361C67.1735 49.0104 74.6869 44.9345 79.6304 40.7787C84.5738 36.6229 82.835 40.3443 78.8858 46.2814C74.9367 52.2185 70.1826 56.5314 62.8776 55.8008C55.5726 55.0701 52.3056 47.2177 55.2553 36.4173C58.2051 25.617 63.8002 19.8113 69.3235 15.9415H69.3246ZM65.7309 34.7071C64.6448 36.5946 63.6934 37.7375 66.4785 36.3839C69.2637 35.0302 73.8212 31.4995 75.1673 29.3157C76.5134 27.1324 76.8999 25.2161 76.4577 24.4556C76.0155 23.6945 75.5223 23.3889 72.1701 26.3559C68.4665 29.6342 66.8165 32.8196 65.7309 34.7071V34.7071Z" fill="#ED1C24"/>
<path d="M121.819 15.9467C125.346 13.4759 130.585 14.8836 132.589 16.4723C134.593 18.0614 135.284 19.447 136.043 23.2472C136.801 27.0479 134.251 31.6958 128.499 36.5905C122.747 41.4846 118.914 41.1095 117.569 41.1832C116.224 41.2569 116.189 41.1286 115.564 43.3561C114.939 45.5842 114.409 49.4669 117.039 49.2407C119.668 49.015 127.182 44.9391 132.125 40.7833C137.069 36.6276 135.33 40.349 131.381 46.2861C127.432 52.2231 122.677 56.5361 115.372 55.8054C108.068 55.0747 104.8 47.2223 107.75 36.422C110.7 25.6216 116.295 19.8159 121.818 15.9462L121.819 15.9467ZM118.225 34.7123C117.792 35.6903 118.344 36.2215 120.052 35.513C122.912 34.3258 126.316 31.5046 127.662 29.3209C129.008 27.1376 130.541 23.8604 130.098 23.0993C129.656 22.3382 127.868 22.2604 124.516 25.2274C120.813 28.5057 119.107 32.7217 118.226 34.7128L118.225 34.7123Z" fill="#ED1C24"/>
<path d="M91.8648 15.9286C89.3846 15.6627 88.1427 16.4253 88.3702 16.8041C88.5978 17.1828 88.8341 18.6441 88.4125 20.6795C87.991 22.7154 84.0294 40.4901 84.5423 49.1644C85.0552 57.8387 87.3388 55.6132 89.1504 55.1571C90.9619 54.7011 91.8592 54.4383 93.294 50.9627C94.7284 47.4872 100.245 33.8172 105.397 26.2714C110.549 18.725 112.212 19.8983 113.185 19.684C114.157 19.4696 114.692 18.1778 113.944 17.7135C112.077 16.5562 106.601 16.2512 101.78 19.8576C96.9574 23.4636 97.3712 24.1912 97.2494 22.0193C97.1276 19.8473 96.5038 16.4259 91.8653 15.9291L91.8648 15.9286Z" fill="#ED1C24"/>
<path d="M154.981 23.7522C155.078 23.6785 155.175 23.6058 155.273 23.5347C155.985 23.0127 156.763 22.3614 156.247 23.8506C155.626 25.6464 155.664 25.1914 155.276 27.877C154.889 30.5622 155.793 29.8995 156.831 29.2116C157.869 28.5242 159.934 27.4076 163.348 25.6345C166.762 23.8619 165.545 18.486 165.031 15.8436C164.536 13.3027 163.919 12.1789 163.173 13.3316C162.428 14.4838 161.751 14.4292 161.179 13.6212C159.692 11.5224 155.706 13.4496 154.038 14.3148C149.131 16.8603 144.704 21.149 140.844 25.8777C136.505 31.1924 140.311 35.3466 142.739 36.3179C145.167 37.2892 157.032 40.1629 159.37 42.6301C161.706 45.0973 160.37 47.5062 156.219 49.3504C151.388 51.4966 146.736 49.9904 145.652 49.2659C143.738 47.988 144.109 46.1583 146.47 43.7673C148.832 41.3764 151.591 38.3223 147.43 40.8756C144.748 42.5214 141.022 46.0619 139.796 48.5311C138.176 51.7949 141.84 54.0926 143.643 54.8877C146.137 55.9873 148.889 55.9832 151.495 55.6565C154.288 55.3066 156.877 54.2657 159.522 53.0682C161.567 52.1422 163.664 50.7726 165.353 48.949C166.273 47.9551 167.307 46.5911 167.519 44.9643C167.744 43.2454 167.411 42.1674 166.697 40.9518C165.984 39.7363 164.159 36.7518 157.493 34.2207C150.829 31.6901 147.476 31.0434 148.645 29.8959C150.739 27.842 152.719 25.4722 154.981 23.7517V23.7522Z" fill="#ED1C24"/>
<path d="M184.37 0.763806C183.441 0.862225 182.705 1.21623 182.533 2.05923C182.233 3.52109 181.868 4.15798 181.408 5.53482C181.088 6.49428 181.095 9.77199 180.356 10.3811C179.884 10.7691 179.167 10.7716 178.619 10.869C177.76 11.0221 176.894 11.136 176.031 11.2699C174.781 11.4637 173.532 11.6569 172.281 11.8506C171.563 11.962 170.213 11.9017 169.624 12.5344C168.98 13.2254 169.158 18.2541 169.356 19.0167C170.1 21.892 171.693 21.4885 173.812 20.9232C174.071 20.8542 175.107 20.5826 175.363 20.5141C175.961 20.3554 177.131 19.9669 177.328 20.6275C177.52 21.2721 176.968 23.7166 176.901 24.7905C176.343 33.6879 175.422 42.8424 177.073 51.765C177.693 55.1103 178.979 57.376 180.187 54.3837C180.794 52.8791 180.827 50.869 180.914 49.1943C181.183 44.0476 182.811 39.3266 183.374 36.2452C184.635 29.3358 184.887 26.9108 187.119 20.4657C187.643 18.9523 188.222 17.2354 189.594 16.7927C191.783 16.0863 194.691 15.6004 196.949 15.168C199.299 14.7182 201.51 14.2369 203.647 12.9075C204.471 12.3948 207.233 10.515 205.07 10.0935C201.809 9.45767 201.176 9.27629 197.196 9.49271C193.214 9.70913 191.605 9.77096 191.119 9.81373C190.633 9.8565 190.531 7.68613 190.977 6.1176C191.477 4.35842 192.365 2.11849 190.518 1.05906C190.074 0.804514 189.593 0.699396 189.116 0.611797C188.234 0.449998 185.943 0.597885 184.37 0.764837V0.763806Z" fill="#ED1C24"/>
</svg>
