<svg width="228" height="105" viewBox="0 0 228 105" fill="none" xmlns="http://www.w3.org/2000/svg">
<g opacity="0.25" filter="url(#filter0_f)">
<rect width="168.494" height="14.8217" rx="7.41086" transform="matrix(1 0 0 -1 25.6301 90)" fill="#C4C4C4"/>
</g>
<path d="M180.226 88.7015C178.884 88.7015 177.757 88.3259 176.899 87.6283C176.845 87.5747 176.738 87.4674 176.738 87.4674L171.747 82.4769V82.5306C171.747 83.4428 171.64 84.1941 171.479 84.7843C171.264 85.3746 170.996 85.9649 170.62 86.4478C170.084 87.1454 169.333 87.7357 168.528 88.1113C167.669 88.4869 166.811 88.7015 165.845 88.7015C164.879 88.7015 163.967 88.4869 163.108 88.1113C162.571 87.843 162.088 87.521 161.713 87.1454L156.669 82.1013L156.83 81.2964L156.186 81.6184C156.079 82.2623 155.918 82.9062 155.649 83.4965C155.166 84.516 154.576 85.4283 153.825 86.1795C153.074 86.9844 152.161 87.5747 151.088 88.004C150.069 88.4332 148.942 88.7015 147.761 88.7015C146.581 88.7015 145.454 88.4869 144.434 88.004C143.737 87.7893 143.093 87.4137 142.556 86.9844C142.288 86.8234 138.371 82.9062 136.653 81.1891V80.2769L136.01 79.5793L135.312 79.6329V88.3796H133.434L128.121 83.0672L129.141 81.1354L128.121 80.3305H125.009V88.3796H123.185L117.872 83.0672L118.57 81.3501L119.214 66.7544L119.648 66.539L125.009 71.9595V73.3547L125.116 73.9449L128.873 73.8913L129.087 68.2033L129.949 66.5306L134.614 71.2083L138.532 68.2033L141.751 67.452L143.361 67.5057L148.405 68.8472C149.156 69.6521 152.966 73.4083 153.771 74.1596C154.093 74.4815 154.361 74.8035 154.63 75.1791L155.81 68.096L156.561 66.5432L161.767 71.9595V81.4574L162.035 82.2086L164.289 80.8135L165.093 77.8621L165.737 67.291L166.433 66.5432L170.735 71.0121L171.64 69.7594L174.108 67.3447L179.572 68.6351L183.865 72.6596L183.972 72.7669L185.162 68.2033L186.88 67.8277L188.758 67.452C190.636 67.774 190.908 67.0672 192.4 66.5642L196.753 72.0668V77.7012L193.426 76.8426L196.753 79.5256V88.4869H188.972L185.109 84.6234C185.055 84.999 184.948 85.3746 184.787 85.6966C184.519 86.3405 184.143 86.8234 183.714 87.3064C183.231 87.7357 182.694 88.1113 182.05 88.3796C181.567 88.5942 180.923 88.7015 180.226 88.7015Z" fill="black"/>
<path d="M47.0944 88.647C46.1285 88.647 45.2163 88.4323 44.3577 88.0567C43.8211 87.7884 43.3381 87.4664 42.9625 87.0908L37.7038 81.7784L37.6501 81.3491L37.3282 81.4565C37.7038 82.1004 37.8648 82.8516 37.8648 83.6565C37.8648 85.159 37.3282 86.3932 36.2013 87.2518C35.7184 87.6811 35.1281 87.9494 34.5378 88.164C33.9476 88.325 33.1963 88.4323 32.2304 88.4323H28.0986L22.7325 83.0126L23.7387 67.9978C25.0802 67.5148 26.8107 68.5243 28.4742 68.1487L30.084 68.2024L35.0208 73.1391C35.3964 73.4611 35.6647 73.8367 35.8793 74.266C35.8793 74.266 35.8793 74.266 35.933 74.266C36.094 74.266 36.5233 72.3342 36.9526 70.3488C37.2745 68.739 37.5965 67.1828 37.6501 66.6462C37.7038 66.6462 37.8111 66.6462 37.8648 66.6462L43.0162 71.7976V81.2955L43.3381 81.8858L44.5187 81.8321L46.6114 78.9881L47.0407 67.0755L47.5773 66.5389L52.2458 71.2073L53.6409 67.8267L57.0752 67.1828L59.4363 67.934C59.5436 68.0414 64.8023 73.3001 64.8023 73.3001C64.856 73.3538 64.9096 73.4074 64.9633 73.4611L65.3389 71.583L67.8073 68.5243L70.222 67.6657L75.4807 67.9877L79.3979 69.8658C80.9541 71.5293 83.5834 74.3196 83.6908 74.427C83.8517 74.5879 83.9591 74.6953 84.0664 74.8026L84.4957 74.4806L84.442 67.2901L85.6225 67.3438L91.0422 67.0218L92.4374 66.5389L97.8034 71.9049V73.6221L98.2327 70.3488L98.3937 67.9877L100.54 67.1828L104.243 67.934C104.35 68.0414 109.609 73.3001 109.609 73.3001C109.877 73.5684 110.145 73.8904 110.36 74.266C110.682 74.8562 110.843 75.6075 110.843 76.4661C110.843 77.7539 110.467 78.8271 109.716 79.632C108.965 80.4906 107.945 80.9199 106.657 81.0272L111.916 88.3787H102.311L97.6961 83.7639V88.3787H89.1641L84.8713 84.0858C84.6567 84.6761 84.3347 85.2127 83.9054 85.7493C83.1542 86.6615 82.2419 87.3055 81.1687 87.8421C80.0419 88.3787 78.9686 88.5933 77.7881 88.5933C77.6808 88.5933 68.5585 88.5933 68.5585 88.5933L63.9974 84.6224C63.9974 84.6224 64.695 86.2859 65.6072 88.4323H57.6118L52.8897 83.7102C52.836 84.1395 52.7824 84.4615 52.675 84.7834C52.5141 85.32 52.2458 85.9103 51.8701 86.3932C51.3335 87.0908 50.636 87.6811 49.7774 88.0567C48.9188 88.4323 48.0066 88.647 47.0944 88.647Z" fill="black"/>
<path d="M222.51 26.9376C219.72 26.9376 217.359 29.084 217.359 32.0353C217.359 34.9866 219.72 37.133 222.51 37.133C225.301 37.133 227.662 34.9866 227.662 32.0353C227.608 29.084 225.247 26.9376 222.51 26.9376ZM222.51 36.2745C220.203 36.2745 218.378 34.45 218.378 32.0353C218.378 29.6206 220.203 27.7961 222.51 27.7961C224.818 27.7961 226.642 29.6206 226.642 32.0353C226.588 34.45 224.764 36.2745 222.51 36.2745ZM224.818 30.7474C224.818 29.5669 224.12 29.084 222.725 29.084H220.471V34.933H221.383V32.3573H222.403L223.959 34.933H224.979L223.315 32.3573C224.174 32.3036 224.818 31.8207 224.818 30.7474ZM221.437 31.6597V29.8352H222.671C223.262 29.8352 223.959 29.9425 223.959 30.6938C223.959 31.606 223.315 31.6597 222.51 31.6597H221.437Z" fill="#ED1C24"/>
<path d="M21.4446 30.4791C21.4446 28.8156 21.391 27.2595 21.3373 25.8106C21.23 24.4155 21.069 23.1813 20.8543 22.1617C20.6397 21.1422 20.2641 20.3373 19.8885 19.747C19.4592 19.1568 18.9226 18.8885 18.225 18.8885C17.4201 18.8885 16.7762 19.3177 16.3469 20.069C15.9176 20.8739 15.6493 22.0008 15.4883 23.3959C15.3273 24.7911 15.2737 26.4546 15.2737 28.3327C15.2737 30.2108 15.2737 32.2499 15.2737 34.3963C15.2737 36.5427 15.2737 38.5818 15.2737 40.5136C15.2737 42.3917 15.381 44.0552 15.542 45.504C15.7029 46.8992 15.9713 48.0261 16.4005 48.8846C16.7762 49.7432 17.4201 50.1725 18.225 50.1725C18.9226 50.1725 19.5665 49.9042 20.1568 49.4212C20.6934 48.9383 20.9617 48.2407 20.9617 47.3285V42.821C20.9617 41.8551 20.8007 41.1575 20.4787 40.7819C20.1568 40.4063 19.8348 40.138 19.5128 40.0307C19.1909 39.9233 18.8689 39.8697 18.547 39.8697C18.225 39.8697 18.1177 39.816 18.1177 39.655V32.4645L35.128 32.3572V40.0843C34.4304 40.0843 33.8938 40.2453 33.5182 40.5136C33.1426 40.8356 32.8743 41.2112 32.7133 41.6405C32.5523 42.0697 32.445 42.5527 32.3913 43.0893C32.3377 43.6259 32.3377 44.0552 32.3377 44.4845V59.1338H28.3668C27.7765 58.4362 27.2399 57.9532 26.757 57.6849C26.274 57.4703 25.7911 57.363 25.3082 57.4166C24.8252 57.4703 24.3423 57.6313 23.8593 57.8996C23.3764 58.1679 22.8398 58.4362 22.2495 58.7045C21.6593 58.9728 21.0153 59.2411 20.3177 59.4021C19.6202 59.6167 18.8153 59.6704 17.903 59.6167C14.7371 59.563 12.1077 58.9191 9.96129 57.5776C7.81487 56.2361 6.04408 54.4653 4.70257 52.2116C3.36106 49.9578 2.39517 47.3285 1.80491 44.3235C1.2683 41.4258 1 38.2062 1 34.7719C1 31.3377 1.32196 28.118 1.91223 25.0594C2.50249 22.0008 3.52204 19.3714 4.91721 17.1177C6.25872 14.8639 8.02951 13.0931 10.1759 11.8053C12.3223 10.5174 14.898 9.87351 17.9567 9.92717C18.9226 10.0345 19.7275 10.1955 20.3177 10.4101C20.908 10.6248 21.391 10.8394 21.7666 11.054C22.1422 11.2687 22.4105 11.4833 22.6251 11.6443C22.8398 11.8053 23.0544 11.9126 23.2691 11.9126C23.4837 11.9126 23.752 11.8589 24.0203 11.698C24.2886 11.537 24.7179 11.215 25.2545 10.7321H31.0498V30.4254H21.4446" fill="#ED1C24"/>
<path d="M53.6946 10.2491C56.7532 10.3028 59.3289 10.9467 61.4754 12.2345C63.6218 13.5224 65.3926 15.2932 66.7877 17.5469C68.1829 19.8006 69.1488 22.43 69.7927 25.435C70.4366 28.44 70.7586 31.6596 70.7586 35.0939C70.7586 38.5281 70.4903 41.7478 69.9 44.8064C69.3098 47.865 68.3439 50.4944 67.0024 52.8018C65.6609 55.0555 63.8901 56.88 61.7437 58.1678C59.5972 59.4557 56.9142 60.0996 53.7483 60.0996C50.5823 60.046 47.9529 59.402 45.8065 58.0605C43.6601 56.719 41.8893 54.9482 40.5478 52.6945C39.2063 50.4407 38.2404 47.8114 37.6501 44.8064C37.0599 41.8014 36.7379 38.5818 36.7379 35.1475C36.7379 31.7133 37.0599 28.4936 37.7038 25.435C38.3477 22.3764 39.3136 19.747 40.7088 17.4933C42.0503 15.2395 43.8211 13.4687 45.9675 12.1809C48.0603 10.8394 50.6896 10.1954 53.6946 10.2491ZM53.9092 19.264C53.1043 19.264 52.4604 19.6933 52.0848 20.4982C51.7092 21.3031 51.4409 22.43 51.3335 23.8788C51.2262 25.274 51.1726 26.9375 51.2262 28.8156C51.2799 30.6937 51.2799 32.7328 51.2799 34.8792C51.2799 37.0256 51.2799 39.0647 51.2262 40.9429C51.1726 42.821 51.2262 44.4844 51.3872 45.9333C51.5482 47.3284 51.7628 48.4553 52.1385 49.3139C52.5141 50.1188 53.1043 50.5481 53.9092 50.5481C54.7141 50.5481 55.2508 50.1188 55.6264 49.3139C56.002 48.509 56.2166 47.3821 56.3776 45.9333C56.4849 44.5381 56.5386 42.8746 56.4849 40.9429C56.4313 39.0647 56.4313 37.0256 56.4313 34.8792C56.4313 32.7328 56.4313 30.6937 56.4849 28.8156C56.5386 26.9375 56.4849 25.274 56.3776 23.8788C56.2703 22.4837 56.0557 21.3568 55.68 20.4982C55.3581 19.6933 54.7678 19.264 53.9092 19.264Z" fill="#ED1C24"/>
<path d="M89.3788 10.2491C92.4374 10.3028 95.0131 10.9467 97.1596 12.2345C99.306 13.5224 101.077 15.2932 102.472 17.5469C103.867 19.8006 104.833 22.43 105.477 25.435C106.121 28.44 106.443 31.6596 106.443 35.0939C106.443 38.5281 106.175 41.7478 105.584 44.8064C104.994 47.865 104.028 50.4944 102.687 52.8018C101.345 55.0555 99.5743 56.88 97.4279 58.1678C95.2814 59.4557 92.5984 60.0996 89.4325 60.0996C86.2665 60.046 83.6371 59.402 81.4907 58.0605C79.3443 56.719 77.5735 54.9482 76.232 52.6945C74.8905 50.4407 73.9246 47.8114 73.3343 44.8064C72.7441 41.8014 72.4221 38.5818 72.4221 35.1475C72.4221 31.7133 72.7441 28.4936 73.388 25.435C74.0319 22.3764 74.9978 19.747 76.393 17.4933C77.7345 15.2395 79.5053 13.4687 81.6517 12.1809C83.7445 10.8394 86.3202 10.1954 89.3788 10.2491ZM89.5934 19.264C88.7885 19.264 88.1446 19.6933 87.769 20.4982C87.3934 21.3031 87.1251 22.43 87.0177 23.8788C86.9104 25.274 86.8568 26.9375 86.9104 28.8156C86.9641 30.6937 86.9641 32.7328 86.9641 34.8792C86.9641 37.0256 86.9641 39.0647 86.9104 40.9429C86.8568 42.821 86.9104 44.4844 87.0714 45.9333C87.2324 47.3284 87.447 48.4553 87.8227 49.3139C88.1983 50.1188 88.7885 50.5481 89.5934 50.5481C90.3984 50.5481 90.935 50.1188 91.3106 49.3139C91.6862 48.509 91.9008 47.3821 92.0618 45.9333C92.1691 44.5381 92.2228 42.8746 92.2228 40.9429C92.1691 39.0647 92.1691 37.0256 92.1691 34.8792C92.1691 32.7328 92.1691 30.6937 92.2228 28.8156C92.2765 26.9375 92.2228 25.274 92.1155 23.8788C92.0082 22.4837 91.7935 21.3568 91.4179 20.4982C90.9886 19.6933 90.3984 19.264 89.5934 19.264Z" fill="#ED1C24"/>
<path d="M123.721 10.7858C124.526 10.8394 125.546 11.1077 126.78 11.537C127.961 11.9663 129.248 12.5566 130.59 13.4151C131.931 14.2737 133.219 15.2932 134.561 16.5274C135.849 17.7616 137.029 19.2105 138.102 20.9276C139.176 22.6447 139.981 24.5765 140.678 26.7766C141.322 28.9766 141.644 31.3914 141.644 34.0744C141.644 36.972 141.322 39.6014 140.678 42.0161C140.034 44.3772 139.176 46.5236 138.102 48.4017C137.029 50.2798 135.849 51.9433 134.561 53.3385C133.273 54.7336 131.931 55.8605 130.59 56.7727C129.248 57.6313 128.014 58.2752 126.78 58.7045C125.6 59.1338 124.58 59.2948 123.721 59.1875H107.57L107.677 50.3871C108.267 50.3335 108.911 50.1188 109.555 49.8505C110.199 49.5822 110.736 49.0993 111.111 48.509V22.3764C110.897 21.9471 110.682 21.5715 110.521 21.3032C110.36 21.0349 110.145 20.7666 109.877 20.6056C109.609 20.391 109.287 20.2837 108.911 20.1227C108.536 19.9617 108.053 19.908 107.516 19.8007V10.7858H123.721ZM128.658 35.4159C128.658 32.7329 128.605 30.5328 128.444 28.762C128.283 26.9912 128.122 25.596 127.907 24.5228C127.692 23.4496 127.424 22.6984 127.102 22.2154C126.78 21.7325 126.458 21.4105 126.082 21.2495C125.707 21.0886 125.385 21.0349 125.009 21.0886C124.634 21.1422 124.312 21.1422 123.99 21.1422L123.775 50.1725C124.151 50.1725 124.473 50.1725 124.848 50.1725C125.224 50.1725 125.546 50.0652 125.922 49.8505C126.243 49.6359 126.565 49.2066 126.887 48.67C127.209 48.1334 127.478 47.2748 127.692 46.2016C127.961 45.1284 128.175 43.6796 128.336 41.9625C128.497 40.1917 128.605 38.0453 128.658 35.4159Z" fill="#ED1C24"/>
<path d="M157.044 10.7858V19.6934C156.991 19.7471 156.883 19.8007 156.723 19.908C156.562 20.0154 156.401 20.1763 156.24 20.3373C156.079 20.4983 155.918 20.7666 155.81 21.0349C155.703 21.3569 155.703 21.6788 155.81 22.1081L158.547 26.9912L160.21 22.0008C160.264 21.4642 160.264 21.0349 160.103 20.7666C159.942 20.4446 159.566 20.1227 158.923 19.6934V10.7858H173.196V19.8007C172.284 19.7471 171.425 19.8007 170.621 20.0154C169.816 20.23 169.279 20.8203 168.957 21.8398L163.054 38.5282V47.9724C163.43 48.67 163.859 49.2066 164.396 49.5286C164.933 49.8505 165.684 50.1188 166.596 50.3871V59.0801H147.332V50.3871C148.244 50.1188 148.942 49.7969 149.425 49.5286C149.908 49.2066 150.283 48.7237 150.605 47.9724V38.5282L142.878 21.7861C142.395 21.0886 141.859 20.552 141.376 20.2837C140.893 20.0154 140.249 19.8544 139.444 19.7471V10.7858H157.044Z" fill="#ED1C24"/>
<path d="M209.954 12.7712L211.081 11.2687H216.017V28.279H210.168C209.954 27.6888 209.739 26.9912 209.578 26.1863C209.417 25.435 209.149 24.6838 208.88 23.9325C208.612 23.1813 208.236 22.4837 207.754 21.7861C207.324 21.0885 206.734 20.5519 205.929 20.1763C205.017 19.8007 204.158 19.8007 203.407 20.069C202.924 20.23 202.495 20.6056 202.173 21.0349C201.851 21.5178 201.797 22.1081 202.012 22.8057C202.602 24.0935 203.407 25.2204 204.427 26.2399C205.393 27.2595 206.466 28.1717 207.593 29.0839C208.719 29.9962 209.846 30.8547 211.027 31.7133C212.207 32.5719 213.281 33.5377 214.3 34.5573C215.32 35.5768 216.178 36.7037 216.929 37.9916C217.681 39.2794 218.164 40.7282 218.432 42.4454C218.539 43.7332 218.593 45.0211 218.486 46.3089C218.432 47.5968 218.271 48.8846 217.949 50.1188C217.627 51.353 217.144 52.4799 216.554 53.5531C215.964 54.6263 215.159 55.5385 214.193 56.3434C213.281 57.041 212.261 57.6313 211.134 58.1679C210.007 58.6508 208.773 58.9728 207.539 59.2411C206.305 59.4557 205.071 59.5094 203.836 59.4021C202.602 59.2947 201.422 58.9728 200.295 58.4898C199.973 58.3289 199.651 58.1679 199.329 58.0069C199.007 57.7922 198.685 57.6313 198.363 57.5239C198.041 57.4166 197.665 57.3093 197.29 57.2556C196.914 57.202 196.539 57.2556 196.163 57.363C195.465 57.7386 194.875 58.4362 194.499 59.3484L189.563 59.1338V39.3867H196.163C196.431 40.1916 196.7 41.1039 196.914 42.0698C197.129 43.0356 197.397 44.0015 197.719 44.9137C198.041 45.826 198.47 46.6845 198.953 47.4895C199.436 48.2944 200.134 48.9383 200.992 49.4212C202.549 49.9578 203.783 50.0115 204.641 49.5285C204.856 49.4212 205.124 49.3139 205.392 49.2066C205.661 49.0993 205.929 48.8846 206.144 48.67C206.358 48.4553 206.466 48.1334 206.573 47.7578C206.627 47.3821 206.519 46.8992 206.251 46.3089C205.446 45.0211 204.48 43.8405 203.3 42.7673C202.119 41.6941 200.885 40.6209 199.597 39.5477C198.309 38.4745 197.021 37.4013 195.734 36.3281C194.446 35.2549 193.319 34.0207 192.353 32.7328C191.387 31.445 190.582 29.9962 190.046 28.3864C189.509 26.7765 189.348 25.0057 189.509 22.913C189.509 21.6788 189.67 20.4983 189.938 19.2641C190.26 18.0299 190.69 16.9567 191.28 15.8835C191.87 14.8639 192.568 13.9517 193.373 13.2541C194.177 12.5029 195.09 11.9663 196.163 11.5906C197.397 11.1614 198.578 10.8394 199.597 10.6784C200.617 10.5174 201.69 10.4638 202.709 10.5174C203.729 10.6248 204.856 10.8394 205.983 11.1614C207.217 11.5906 208.505 12.0736 209.954 12.7712Z" fill="#ED1C24"/>
<path fill-rule="evenodd" clip-rule="evenodd" d="M182.587 0L184.68 6.22461L191.28 6.33193L186.021 10.2491L187.953 16.5274L182.587 12.7175L177.221 16.5274L179.153 10.2491L173.894 6.33193L180.44 6.22461L182.587 0Z" fill="white"/>
<path fill-rule="evenodd" clip-rule="evenodd" d="M9.90771 68.2024L12.0541 74.427L18.6007 74.5343L13.342 78.4515L15.2737 84.7835L9.90771 80.9736L4.54167 84.7835L6.5271 78.4515L1.21472 74.5343L7.81495 74.427L9.90771 68.2024Z" fill="#ED1C24"/>
<path fill-rule="evenodd" clip-rule="evenodd" d="M209.202 68.2024L211.349 74.427L217.895 74.5343L212.637 78.4515L214.568 84.7835L209.202 80.9736L203.836 84.7835L205.768 78.4515L200.509 74.5343L207.11 74.427L209.202 68.2024Z" fill="#ED1C24"/>
<path d="M30.7816 81.8858C30.2987 82.315 29.7084 82.5833 29.1181 82.7443C28.5279 82.9053 27.7766 83.0126 26.8107 83.0126H22.7325V66.5389H25.7375C26.4351 66.5389 27.1327 66.6462 27.7766 66.8072C28.4205 66.9682 28.9572 67.2365 29.4401 67.6121C29.923 67.9877 30.2987 68.417 30.567 69.0073C30.8353 69.5439 30.9962 70.2414 30.9962 71.0463C30.9962 71.7976 30.8889 72.3879 30.6206 72.8708C30.3523 73.3538 29.9767 73.8367 29.3864 74.266C30.3523 74.5343 31.1036 75.0172 31.6402 75.7685C32.1768 76.5197 32.4451 77.3783 32.4451 78.3442C32.4451 79.8467 31.8548 81.0272 30.7816 81.8858ZM26.0058 68.3097H24.6107V73.783H25.9522C27.0254 73.783 27.8839 73.5684 28.3669 73.1391C28.9035 72.7098 29.1718 71.9586 29.1718 70.9927C29.1718 69.2219 28.0986 68.3097 26.0058 68.3097ZM30.245 76.8417C29.9767 76.4661 29.6547 76.1441 29.2791 75.9294C28.8498 75.7148 28.4205 75.5538 27.9376 75.5002C27.4547 75.3928 26.9717 75.3928 26.4351 75.3928H24.6107V81.2955H26.7034C27.1864 81.2955 27.6693 81.2418 28.1522 81.1345C28.6352 81.0808 29.0645 80.8662 29.3864 80.6516C29.7621 80.4369 30.0304 80.115 30.245 79.7393C30.4596 79.3637 30.567 78.8808 30.567 78.2368C30.6206 77.7002 30.5133 77.2173 30.245 76.8417Z" fill="white"/>
<path d="M47.3627 79.4174C47.2017 80.0076 46.9334 80.5442 46.5577 81.0809C46.0211 81.7784 45.3236 82.3687 44.465 82.7443C43.6064 83.1199 42.7479 83.3346 41.782 83.3346C40.8161 83.3346 39.9039 83.1199 39.0453 82.7443C38.1867 82.315 37.4891 81.7784 36.9525 81.0809C36.5769 80.5442 36.2549 80.0076 36.1476 79.4174C35.9866 78.8271 35.933 78.0759 35.933 77.2173V66.5389H37.8111V76.627C37.8111 77.0563 37.8111 77.4319 37.8111 77.7539C37.8111 78.0759 37.8648 78.3442 37.9184 78.6125C37.9721 78.8271 38.0257 79.0418 38.0794 79.2564C38.1331 79.471 38.2404 79.632 38.3477 79.793C38.6697 80.3296 39.1526 80.7589 39.7965 81.0809C40.4405 81.4028 41.138 81.5638 41.8356 81.5638C42.5332 81.5638 43.2308 81.4028 43.8747 81.0809C44.5187 80.7589 45.0016 80.3296 45.3236 79.793C45.4309 79.632 45.5382 79.4174 45.5919 79.2564C45.6455 79.0418 45.6992 78.8271 45.7528 78.6125C45.8065 78.3978 45.8065 78.0759 45.8065 77.7539C45.8065 77.4319 45.8065 77.0563 45.8065 76.627V66.5389H47.631V77.1636C47.5773 78.0759 47.5236 78.8271 47.3627 79.4174Z" fill="white"/>
<path d="M59.5435 83.0663L54.5531 75.8758H54.1238V83.0663H52.2457V66.5389H54.9287C55.68 66.5389 56.3776 66.5925 57.0752 66.7535C57.7727 66.9145 58.363 67.1291 58.8996 67.5048C59.4362 67.8804 59.8655 68.3097 60.1875 68.8999C60.5094 69.4902 60.6704 70.2414 60.6704 71.1C60.6704 72.3879 60.2948 73.4611 59.5435 74.266C58.7923 75.0709 57.7727 75.5538 56.5386 75.6611L61.7973 83.0126H59.5435V83.0663ZM58.4703 69.5439C58.1484 69.1682 57.7727 68.8999 57.3435 68.6853C56.8605 68.5243 56.3776 68.417 55.7873 68.3633C55.2507 68.3097 54.6604 68.3097 54.1775 68.3097V74.2123C54.7678 74.2123 55.358 74.1587 55.9483 74.1587C56.5386 74.105 57.0215 73.9977 57.4508 73.783C57.8801 73.5684 58.2557 73.3001 58.524 72.8708C58.7923 72.4415 58.9533 71.8513 58.9533 71.1537C58.8996 70.4561 58.7923 69.9195 58.4703 69.5439Z" fill="white"/>
<path d="M79.8272 77.7003C79.6125 78.6662 79.2369 79.5247 78.5393 80.3833C77.7881 81.2955 76.8758 82.0468 75.8026 82.5297C74.6758 83.0663 73.5489 83.3346 72.422 83.3346C71.1879 83.3346 70.061 83.12 68.9878 82.6907C67.9682 82.2614 67.056 81.6175 66.2511 80.8662C65.4998 80.115 64.8559 79.1491 64.4266 78.0759C63.9974 77.0027 63.7827 75.8222 63.7827 74.588C63.7827 73.4611 63.9974 72.3879 64.4803 71.3684C64.9096 70.3488 65.5535 69.4902 66.3584 68.739C67.1633 67.9878 68.0755 67.3975 69.1488 66.9682C70.222 66.5389 71.3488 66.3243 72.5294 66.3243C73.9782 66.3243 75.2124 66.6462 76.3392 67.2902C77.4661 67.9341 78.4857 68.7927 79.3979 69.8659L78.0027 71.1001C77.3588 70.1878 76.5539 69.4902 75.6417 68.9C74.7294 68.3097 73.7099 68.0414 72.5294 68.0414C71.6171 68.0414 70.7586 68.2024 69.9 68.578C69.0414 68.9536 68.3439 69.3829 67.6999 69.9732C67.056 70.5634 66.5731 71.261 66.1974 72.0659C65.8218 72.8709 65.6608 73.7294 65.6608 74.588C65.6608 75.5539 65.8218 76.4661 66.1974 77.3247C66.5731 78.1832 67.056 78.8808 67.6463 79.5247C68.2365 80.1687 68.9341 80.6516 69.7927 80.9736C70.5976 81.3492 71.5098 81.5102 72.422 81.5102C72.905 81.5102 73.3879 81.4565 73.9245 81.2955C74.4075 81.1346 74.8904 80.9736 75.3734 80.7053C75.8563 80.437 76.2319 80.1687 76.6075 79.8467C76.9832 79.5247 77.3051 79.1491 77.5198 78.7198C77.7344 78.3442 77.8954 77.9686 78.0027 77.7003C78.11 77.3783 78.1637 76.949 78.2174 76.4124H73.3343V74.6953H80.2028C80.0955 75.7685 79.9882 76.7881 79.8272 77.7003Z" fill="white"/>
<path d="M83.7979 83.0663V66.5389H92.3835V68.3097H85.676V73.1391H92.1689V74.9099H85.676V81.2955H92.3835V83.0663H83.7979Z" fill="white"/>
<path d="M128.121 83.0663V74.9636H119.643V83.0663H117.872V66.5389H119.643V73.3001H128.121V66.5389H129.946V83.0663H128.121Z" fill="white"/>
<path d="M150.283 78.1296C149.854 79.1491 149.21 80.0614 148.459 80.8126C147.708 81.5638 146.795 82.2078 145.722 82.6371C144.703 83.0663 143.576 83.281 142.395 83.281C141.215 83.281 140.088 83.0663 139.015 82.6371C137.941 82.2078 137.029 81.5638 136.278 80.8126C135.527 80.0614 134.883 79.1491 134.453 78.1296C134.024 77.11 133.756 75.9832 133.756 74.8026C133.756 73.6221 133.971 72.5489 134.453 71.4757C134.883 70.4561 135.527 69.5439 136.332 68.739C137.136 67.9878 137.995 67.3438 139.068 66.9146C140.088 66.4853 141.215 66.2706 142.395 66.2706C143.576 66.2706 144.649 66.4853 145.722 66.9146C146.742 67.3438 147.654 67.9878 148.459 68.739C149.21 69.5439 149.854 70.4025 150.283 71.422C150.713 72.4416 150.981 73.5684 150.981 74.749C150.927 75.9832 150.713 77.11 150.283 78.1296ZM148.566 72.1733C148.191 71.3684 147.761 70.6171 147.117 70.0269C146.527 69.4366 145.829 68.9537 144.971 68.578C144.166 68.2024 143.254 68.0414 142.342 68.0414C141.376 68.0414 140.517 68.2024 139.712 68.578C138.907 68.9537 138.156 69.4366 137.566 70.0269C136.975 70.6171 136.493 71.3684 136.117 72.1733C135.795 72.9782 135.58 73.8904 135.58 74.8563C135.58 75.7685 135.741 76.6807 136.117 77.4857C136.493 78.2906 136.975 79.0418 137.566 79.6321C138.156 80.276 138.907 80.7053 139.712 81.0809C140.517 81.4565 141.429 81.6175 142.342 81.6175C143.254 81.6175 144.166 81.4565 144.971 81.0809C145.776 80.7053 146.473 80.276 147.117 79.6321C147.708 79.0418 148.191 78.3442 148.566 77.4857C148.942 76.6807 149.103 75.7685 149.103 74.8563C149.103 73.8904 148.888 72.9782 148.566 72.1733Z" fill="white"/>
<path d="M166.113 79.4174C165.952 80.0076 165.684 80.5442 165.308 81.0809C164.772 81.7784 164.074 82.3687 163.215 82.7443C162.357 83.1199 161.498 83.3346 160.532 83.3346C159.566 83.3346 158.654 83.1199 157.796 82.7443C156.937 82.315 156.239 81.7784 155.703 81.0809C155.327 80.5442 155.059 80.0076 154.898 79.4174C154.737 78.8271 154.683 78.0759 154.683 77.2173V66.5389H156.561V76.627C156.561 77.0563 156.561 77.4319 156.561 77.7539C156.561 78.0759 156.615 78.3442 156.669 78.6125C156.722 78.8271 156.776 79.0418 156.83 79.2564C156.883 79.471 156.991 79.632 157.098 79.793C157.42 80.3296 157.903 80.7589 158.547 81.0809C159.191 81.4028 159.888 81.5638 160.586 81.5638C161.284 81.5638 161.981 81.4028 162.625 81.0809C163.269 80.7589 163.752 80.3296 164.074 79.793C164.181 79.632 164.289 79.4174 164.342 79.2564C164.396 79.0418 164.45 78.8271 164.503 78.6125C164.557 78.3978 164.557 78.0759 164.611 77.7539C164.611 77.4319 164.611 77.0563 164.611 76.627V66.5389H166.435V77.1636C166.328 78.0759 166.274 78.8271 166.113 79.4174Z" fill="white"/>
<path d="M179.635 80.2759C179.367 80.9198 178.992 81.4564 178.562 81.8857C178.079 82.315 177.543 82.6906 176.952 82.9589C176.309 83.2272 175.611 83.3346 174.913 83.3346C173.572 83.3346 172.445 82.9589 171.586 82.2613C170.674 81.5101 170.084 80.4905 169.762 79.0954L171.533 78.5588C172.016 80.5979 173.089 81.5638 174.86 81.5638C175.343 81.5638 175.772 81.4564 176.201 81.2955C176.63 81.1345 176.952 80.9198 177.274 80.5979C177.596 80.3296 177.811 79.9539 177.972 79.5247C178.133 79.0954 178.24 78.6661 178.24 78.1831C178.24 77.5392 178.079 77.0563 177.704 76.627C177.328 76.1977 176.845 75.8758 176.309 75.5538C175.718 75.2318 175.128 74.9635 174.484 74.6416C173.84 74.3733 173.196 74.0513 172.66 73.6757C172.069 73.3001 171.64 72.8708 171.264 72.3342C170.889 71.7976 170.674 71.1536 170.674 70.3487C170.674 69.7048 170.782 69.1682 171.05 68.6316C171.264 68.095 171.586 67.6657 172.016 67.2901C172.445 66.9145 172.928 66.6462 173.518 66.4315C174.108 66.2169 174.752 66.1096 175.45 66.1096C177.221 66.1096 178.562 66.9681 179.582 68.6316L178.079 69.5975C177.65 68.9536 177.274 68.4706 176.845 68.2023C176.416 67.934 175.933 67.8267 175.396 67.8267C174.591 67.8267 173.894 68.0413 173.357 68.5243C172.821 68.9536 172.499 69.5438 172.499 70.2951C172.499 70.8853 172.66 71.3146 173.089 71.7439C173.465 72.1195 173.947 72.4415 174.484 72.7635C175.074 73.0318 175.665 73.3537 176.309 73.622C176.952 73.8903 177.596 74.2123 178.133 74.5879C178.723 74.9635 179.153 75.4465 179.528 75.9831C179.904 76.5197 180.118 77.2173 180.118 78.0758C180.011 78.9881 179.904 79.6856 179.635 80.2759Z" fill="white"/>
<path d="M183.821 83.0663V66.5389H192.407V68.3097H185.699V73.1391H192.192V74.9099H185.699V81.2955H192.407V83.0663H183.821Z" fill="white"/>
<path d="M104.296 83.0663L99.3058 75.8758H98.8765V83.0663H96.9984V66.5389H99.6814C100.433 66.5389 101.13 66.5925 101.828 66.7535C102.525 66.9145 103.169 67.1291 103.652 67.5048C104.189 67.8804 104.618 68.3097 104.94 68.8999C105.262 69.4902 105.423 70.2414 105.423 71.1C105.423 72.3879 105.047 73.4611 104.296 74.266C103.545 75.0709 102.525 75.5538 101.291 75.6611L106.55 83.0126H104.296V83.0663ZM103.169 69.5439C102.847 69.1682 102.472 68.8999 102.042 68.6853C101.56 68.5243 101.077 68.417 100.486 68.3633C99.8961 68.3097 99.3595 68.3097 98.8229 68.3097V74.2123C99.4131 74.2123 100.003 74.1587 100.594 74.1587C101.184 74.105 101.667 73.9977 102.096 73.783C102.525 73.5684 102.901 73.3001 103.169 72.8708C103.438 72.4415 103.599 71.8513 103.599 71.1537C103.599 70.4561 103.491 69.9195 103.169 69.5439Z" fill="white"/>
<defs>
<filter id="filter0_f" x="0.630127" y="50.1783" width="218.494" height="64.8217" filterUnits="userSpaceOnUse" color-interpolation-filters="sRGB">
<feFlood flood-opacity="0" result="BackgroundImageFix"/>
<feBlend mode="normal" in="SourceGraphic" in2="BackgroundImageFix" result="shape"/>
<feGaussianBlur stdDeviation="12.5" result="effect1_foregroundBlur"/>
</filter>
</defs>
</svg>
