

<svg xmlns="http://www.w3.org/2000/svg" xmlns:xlink="http://www.w3.org/1999/xlink" version="1.1" viewBox="0 0 409 114" enable-background="new 0 0 612.281 396.85" xml:space="preserve">
	<rect id="backgroundrect" width="100%" height="100%" x="0" y="0" fill="none" stroke="none"/>

<g class="currentLayer"><title>Layer 1</title><g id="svg_1" class="">
	<path fill="#44B200" d="M97.35401367187501,44.082000366210934 c-0.31100000000000005,-4.714 -1.091,-10.51 -5.213,-13.481 c-5.973,-4.311 -12.132,2.827 -15.168,7.591 c-0.8630000000000001,1.355 -1.598,2.785 -2.358,4.194 c-0.030000000000000006,-0.28900000000000003 -0.05600000000000001,-0.5770000000000001 -0.08700000000000002,-0.8660000000000001 c-0.31700000000000006,-2.88 -0.5890000000000001,-5.82 -1.2890000000000001,-8.634 c-0.41600000000000004,-1.6750000000000003 -0.8330000000000001,-3.574 -1.998,-4.913 c-1.141,-1.311 -3.05,-0.013000000000000003 -2.908,1.6910000000000003 c0.10500000000000001,1.237 0.31900000000000006,9.679 0.35800000000000004,12.358 c0.09300000000000003,6.545 -0.544,13.074 -0.6590000000000001,19.616 c-0.07800000000000001,4.41 6.246,5.064 7.501,1.014 c0.923,-2.977 1.536,-6.037 2.471,-9.011 c0.915,-2.9130000000000003 2.411,-5.654 3.91,-8.299 c1.352,-2.39 4.684,-7.594 5.781,-7.735 c0.23700000000000002,-0.030000000000000006 0.30500000000000005,0.271 0.36000000000000004,0.3980000000000001 c0.31300000000000006,0.8270000000000001 1.006,4.416 1.108,7.048 c0.21200000000000002,5.488 0.07900000000000001,10.795 -1.366,16.144 c-1.011,3.742 4.123,5.788 6.1370000000000005,2.588 c2.265,-3.604 3.268,-7.188 3.633,-11.407 C97.803013671875,49.63700036621094 97.536013671875,46.826000366210934 97.35401367187501,44.082000366210934 C97.043013671875,39.368000366210936 97.536013671875,46.826000366210934 97.35401367187501,44.082000366210934 " id="svg_2"/>
	<path fill="#44B200" d="M145.424013671875,25.59900036621093 c3.725,-3.257 7.272,-6.676 10.945,-9.985 c2.903,-2.6180000000000003 -0.8480000000000001,-7.337 -4.127,-5.35 c-4.58,2.773 -8.91,5.688000000000001 -13.02,9.134 c-4.323,3.6260000000000003 -8.497,7.425 -12.492,11.411 c-3.9370000000000003,3.928 -7.728,8.033 -11.299,12.319 c-0.6390000000000001,-1.779 -1.312,-3.547 -2.016,-5.298 c-1.107,-2.7520000000000002 -2.366,-5.3950000000000005 -3.668,-8.06 c-1.264,-2.589 -3.308,-5.832 -3.313,-5.841 c-0.506,-0.777 -1.9060000000000001,-0.8500000000000001 -2.481,0.04800000000000001 c-0.38800000000000007,0.6050000000000001 1.135,6.618 1.6270000000000002,8.493 c1.495,5.69 3.402,11.257 4.872,16.959 c-1.9889999999999999,2.6580000000000004 -3.8890000000000002,5.383 -5.675,8.176 c-2.931,4.582 -5.5920000000000005,9.323 -7.464,14.426 c-1.6630000000000003,4.537 -2.5780000000000003,10.197 -2.408,15.422 c0.14400000000000002,4.467 1.073,9.938 4.05,13.443 c3.001,3.536 7.473,3.702 11.432,1.834 c6.867,-3.236 9.986,-12.726 10.946,-19.662 c1.109,-8.008 0.39000000000000007,-16.229 -1.319,-24.108 c-0.406,-1.8690000000000002 -0.8610000000000001,-3.728 -1.358,-5.578 c4.696,-6.101 9.945,-11.788 15.407,-17.196 C137.741013671875,32.54200036621094 141.527013671875,29.00800036621095 145.424013671875,25.59900036621093 M107.889013671875,93.95400036621095 c-0.541,0.48800000000000004 -1.959,1.4140000000000001 -2.316,0.9570000000000001 c-0.264,-0.3400000000000001 -0.7560000000000001,-1.533 -1.015,-2.442 c-0.5770000000000001,-2.031 -0.6250000000000001,-3.468 -0.6610000000000001,-5.675 c-0.06900000000000002,-4.381 0.554,-8.946 2.305,-12.979 c1.867,-4.308 4.201,-8.399000000000001 6.743,-12.343 c0.6300000000000001,4.11 1.002,8.24 1.005,12.476 C113.95601367187501,80.87400036621094 112.418013671875,89.86200036621094 107.889013671875,93.95400036621095 " id="svg_3"/>
	<path fill="#44B200" d="M180.491013671875,60.21600036621095 c6.062,-0.561 10.241,-5.471 12.571,-10.738 c2.118,-4.795 2.938,-9.894 2.741,-15.116 c-0.19700000000000004,-5.207 -2.089,-11.309 -7.466,-13.29 c-5.589,-2.059 -9.722,3.322 -12.183,7.509 c-3.085,5.256 -5.197,11.138 -7.13,16.901 c-3.209,9.563 -6.206,19.181 -8.596,28.983 c-2.117,8.691 -5.38,24.896 -5.959,28.72 c-0.268,1.772 -0.7270000000000001,3.754 -0.259,5.545 c0.05800000000000001,0.21900000000000003 0.11500000000000002,0.43600000000000005 0.17200000000000001,0.6510000000000001 c0.038000000000000006,0.14600000000000002 0.06400000000000002,0.22900000000000004 0.08100000000000002,0.275 c0.5830000000000001,4.199 4.055,4.146 5.775,1.8490000000000002 c1.119,-1.49 2.122,-3.9130000000000003 2.478,-5.334 c0.8390000000000001,-3.347 3.646,-17.861 5.563,-26.142 c1.62,-6.998 3.486,-13.924 5.572,-20.794 C175.76201367187502,60.187000366210924 178.04601367187502,60.44100036621094 180.491013671875,60.21600036621095 M175.46101367187498,54.088000366210935 c0.07800000000000001,-0.24100000000000002 0.15400000000000003,-0.48500000000000004 0.232,-0.7290000000000001 c1.8840000000000001,-5.812 3.714,-11.744 6.344,-17.271 c0.92,-1.936 2.002,-4.1370000000000005 3.315,-5.799 c0.19200000000000003,-0.24400000000000002 0.402,-0.47100000000000003 0.6180000000000001,-0.6880000000000002 c0.19800000000000004,0.20900000000000002 0.30300000000000005,0.3430000000000001 0.465,0.6680000000000001 c1.053,2.099 1.071,5.065 1.005,7.461 c-0.08800000000000002,3.231 -0.6960000000000002,6.255 -1.8730000000000002,9.285 c-1.171,3.024 -3.347,5.925 -6.581,6.705 C177.85101367187502,53.99400036621094 176.64701367187502,54.138000366210946 175.46101367187498,54.088000366210935 " id="svg_4"/>
	<path fill="#44B200" d="M21.694013671875,30.400000366210946 c1.495,-0.6570000000000001 10.283,-3.954 13.114,-5.04 c5.744,-2.204 11.543,-4.271 17.378,-6.222 c11.691,-3.91 10.312,-3.613 22.005,-7.519 c6.416,-2.144 3.839,-11.619 -2.794,-10.133 c-13.102,2.936 -37.943,11.554 -44.206,13.783 c-3.018,1.073 -6.007,2.221 -8.925,3.5460000000000003 c-5.848,2.656 -6.336,8.157 -6.356,8.312 c-0.015000000000000003,0.08500000000000002 -0.03400000000000001,0.19500000000000003 -0.05800000000000001,0.3380000000000001 c-0.11100000000000002,0.6830000000000002 -0.22300000000000003,1.365 -0.3370000000000001,2.047 c-0.559,3.373 -1.5,6.715 -2.286,10.04 c-1.868,7.9 -3.753,15.811 -5.982,23.617 c-0.7660000000000001,2.6790000000000003 -1.383,5.524 -2.056,8.227 c-0.6970000000000002,2.803 -1.098,5.539 -1.147,8.41 c-0.04400000000000001,2.571 3.9939999999999998,3.975 5.121,1.387 c4.084,-9.381 7.076,-19.293 10.041,-29.084 c1.6960000000000002,-5.6 3.331,-11.218 4.938,-16.843 C20.613013671874995,33.62500036621094 21.139013671875006,32.01400036621095 21.694013671875,30.400000366210946 " id="svg_5"/>
	<path fill="#44B200" d="M46.96301367187499,29.63900036621095 c-2.361,1.4 -3.899,3.416 -5.039,5.885 c-1.356,2.94 -2.606,5.933 -3.746,8.968 c-2.3120000000000003,6.155 -4.547,12.332 -6.921,18.467 c-4.847,12.528 -6.12,14.118 -10.045,26.977 c-0.8370000000000001,2.744 -1.2850000000000001,5.244 -1.25,8.113 c0.04400000000000001,3.59 4.5440000000000005,4.508 6.437,1.741 c3.065,-4.479 6.12,-14.787 8.058,-20.098 c1.975,-5.408 3.971,-10.805 5.929,-16.218 c1.7730000000000001,0.532 3.622,0.7440000000000001 4.662,0.6660000000000001 c5.376,-0.404 10.109,-5.062 12.412,-9.646 c2.557,-5.083 3.004,-11.198 1.945,-16.72 C58.370013671875,32.37800036621093 52.94301367187501,26.090000366210944 46.96301367187499,29.63900036621095 M52.256013671874996,44.715000366210944 c-0.06200000000000001,3.883 -1.206,7.581 -3.798,10.517 c-1.286,1.457 -2.932,2.6790000000000003 -4.819,3.187 c-0.48100000000000004,0.13 -0.997,0.19100000000000003 -1.518,0.21700000000000003 c1.149,-3.233 2.2800000000000002,-6.474 3.371,-9.729 c0.812,-2.418 1.6600000000000001,-4.819 2.613,-7.184 c0.6120000000000001,-1.5270000000000001 1.233,-3.516 2.35,-4.76 c0.05500000000000001,-0.06000000000000001 0.10400000000000001,-0.11200000000000002 0.14900000000000002,-0.15800000000000003 c0.38300000000000006,0.24900000000000003 0.5810000000000001,0.8220000000000001 0.7350000000000001,1.217 C52.18201367187501,40.17400036621095 52.292013671875,42.43200036621093 52.256013671874996,44.715000366210944 " id="svg_6"/>
	<path fill="#44B200" d="M252.37301367187501,29.289000366210928 c-5.186,-0.406 -16.178,-0.09700000000000003 -14.389,7.933 c0.547,2.459 2.2640000000000002,4.718 3.545,6.836 c1.594,2.6340000000000003 3.211,5.441 3.775,8.502 c0.39300000000000007,2.123 0.11300000000000002,3.4290000000000003 -0.6860000000000002,5.007 c-1.557,3.074 -4.221,5.625 -11.322,9.12 c-2.479,1.221 -5.58,2.289 -8.705,3.268 c-8.439,2.646 -16.996,4.312 -25.911,5.773 c-5.836,0.9550000000000001 -12.539,1.526 -17.408,2.1390000000000002 c-2.26,0.28300000000000003 -4.18,1.738 -4.18,4.178 c0,2.127 1.905,4.381 4.18,4.181 c11.034,-0.978 22.039,-2.607 32.833,-5.123 c6.922,-1.613 13.691,-3.785 20.172,-6.72 c5.436,-2.461 10.785,-5.739 14.41,-10.572 c5.059,-6.746 3.275,-14.572 -1.076,-21.171 c-1.01,-1.5350000000000001 -2.127,-2.996 -3.166,-4.514 c-0.41600000000000004,-0.6070000000000001 -1.443,-2.2720000000000002 -1.416,-2.72 c0.03300000000000001,-0.516 0.5680000000000001,-0.8480000000000001 1.2930000000000001,-1.204 c2.922,-1.432 5.57,-2.198 8.281,-3.203 C253.53301367187498,30.652000366210927 253.371013671875,29.36700036621093 252.37301367187501,29.289000366210928 " id="svg_7"/>
	<path fill="#44B200" d="M210.26001367187502,53.91200036621095 c2.646,-2.225 4.482,-5.396 6.908,-7.854 c1.141,-1.159 2.322,-2.285 3.662,-3.208 c0.40800000000000003,-0.281 0.779,-0.48200000000000004 1.189,-0.6470000000000001 c0.35700000000000004,0.6790000000000002 0.5720000000000001,2.391 0.6540000000000001,3.366 c0.47500000000000003,5.612 -0.06600000000000002,11.348 0.10700000000000001,16.861 c0.09400000000000003,2.9050000000000002 3.799,3.205 4.846,0.6550000000000001 c1.6620000000000001,-4.046 2.164,-8.495 2.398,-12.839 c0.21300000000000002,-3.959 -0.07600000000000001,-8.36 -1.8010000000000002,-11.979 c-2.295,-4.812 -7.9670000000000005,-3.7270000000000003 -11.514,-1.104 c-2.414,1.786 -4.627,4.032 -6.459,6.406 c-0.275,0.35400000000000004 -0.545,0.7130000000000001 -0.8140000000000001,1.073 c0.010000000000000002,-1.331 0.020000000000000004,-2.6630000000000003 0.05500000000000001,-3.995 c0.10200000000000001,-3.826 0.5760000000000001,-7.688000000000001 0.39100000000000007,-11.509 c-0.006000000000000002,0 -0.012000000000000002,0.0010000000000000002 -0.018000000000000002,0.0020000000000000005 c-0.010000000000000002,-1.8780000000000001 -2.6820000000000004,-2.409 -3.43,-0.47000000000000003 c-1.371,3.561 -2,7.455 -2.59,11.214 c-0.5780000000000001,3.697 -1.223,7.667 -0.8690000000000001,11.415 C203.37701367187498,55.48200036621094 207.287013671875,56.40800036621093 210.26001367187502,53.91200036621095 " id="svg_8"/>
	<path fill="#44B200" d="M165.599013671875,26.931000366210924 c2.6950000000000003,-2.362 4.882,-5.221 6.731,-8.282 c0.8680000000000001,-1.4380000000000002 2.869,-6.404 -0.6730000000000002,-6.244 c-1.97,0.08800000000000002 -8.575,7.673 -10.135,12.152 C160.648013671875,27.062000366210924 163.94901367187498,28.376000366210945 165.599013671875,26.931000366210924 " id="svg_9"/>
	<path fill="#44B200" d="M158.53801367187498,49.955000366210925 c2.343,-6.123 -1.355,-11.955 -7.443,-13.578 c-3.644,-0.974 -7.457,0.3970000000000001 -10.016,3.063 c-2.352,2.451 -3.085,6.094 -2.732,9.373 c0.14700000000000002,1.357 0.901,2.367 1.8690000000000002,2.883 c0.06700000000000002,2.3770000000000002 2.794,4.461 4.739,5.174 C150.590013671875,58.93500036621094 156.503013671875,55.27400036621094 158.53801367187498,49.955000366210925 M148.532013671875,50.40300036621093 c-0.8,0.30200000000000005 -1.86,0.505 -2.672,0.14700000000000002 c-0.3410000000000001,-0.135 -0.6690000000000002,-0.29400000000000004 -0.986,-0.47700000000000004 c-0.025000000000000005,-0.009000000000000003 -0.04000000000000001,-0.016000000000000004 -0.06300000000000001,-0.025000000000000005 c1.025,-1.718 1.775,-4.119 3.456,-5.027 c1.709,-0.924 2.783,0.49400000000000005 2.875,1.57 C151.244013671875,47.77200036621093 150.188013671875,49.78100036621095 148.532013671875,50.40300036621093 " id="svg_10"/>
	<path fill="#231F20" d="M406.141013671875,72.43200036621093 c-5.168,-1.5390000000000001 -10.973,-1.068 -16.314,-0.99 c-5.91,0.08400000000000002 -11.82,0.14100000000000001 -17.73,0.19000000000000003 c-11.34,0.09500000000000003 -22.676000000000002,0.20500000000000002 -34.012,0.37800000000000006 c-27.354,0.41100000000000003 -54.729,0.78 -81.811,4.8950000000000005 c-2.305,0.35000000000000003 -1.73,4.104 0.545,4.021 c27.059,-0.982 54.188,-1.091 81.268,-1.201 c11.338000000000001,-0.04700000000000001 22.674,-0.013000000000000003 34.01,-0.06600000000000002 c5.41,-0.024000000000000004 10.816,-0.06300000000000001 16.227,-0.11700000000000002 c5.799,-0.05700000000000001 12.273,0.37900000000000006 17.82,-1.516 C408.822013671875,77.11200036621094 408.987013671875,73.28000036621094 406.141013671875,72.43200036621093 " id="svg_11"/>
	<path fill="#231F20" d="M327.344013671875,61.67900036621094 c2.2640000000000002,-3.861 1.35,-9.914 1.541,-14.297 c0.03300000000000001,-0.776 0.05100000000000001,-1.554 0.08000000000000002,-2.33 c1.072,2.436 2.242,4.862 3.318,7.288 c1.512,3.406 1.8090000000000002,7.214 4.473,9.951 c1.521,1.564 3.625,0.22800000000000004 3.863,-1.6 c0.562,-4.311 -2.285,-9.082 -4.012,-12.924 c-0.93,-2.075 -1.7810000000000001,-4.843 -3.443,-6.479 c0.518,0.511 3.014,-3.08 3.158,-3.521 c2.1390000000000002,-6.532 -2.832,-11.867 -9.326,-9.764 c-0.16600000000000004,0.05400000000000001 -0.29700000000000004,0.16100000000000003 -0.39100000000000007,0.29600000000000004 c-1.008,0.15600000000000003 -1.908,0.8920000000000001 -1.9020000000000001,2.204 c0.021000000000000005,5.627 -0.09600000000000003,11.252 -0.201,16.877 c-0.08200000000000002,4.343 -1.154,10.436 1.078,14.297 C325.965013671875,62.34500036621094 326.959013671875,62.33900036621094 327.344013671875,61.67900036621094 M329.281013671875,29.971000366210944 c3.434,0.7420000000000001 4.242,5.1370000000000005 1.479,7.175 c-0.465,0.3440000000000001 -1.043,0.8270000000000001 -1.574,1.393 c0.06600000000000002,-2.678 0.11700000000000002,-5.356 0.14600000000000002,-8.033 C329.332013671875,30.31500036621094 329.315013671875,30.138000366210946 329.281013671875,29.971000366210944 " id="svg_12"/>
	<path fill="#231F20" d="M383.489013671875,62.513000366210946 c2.2640000000000002,-3.8600000000000003 1.35,-9.915 1.541,-14.296 c0.035,-0.776 0.05100000000000001,-1.5550000000000002 0.08200000000000002,-2.331 c1.072,2.436 2.242,4.863 3.316,7.288 c1.514,3.406 1.8090000000000002,7.214 4.475,9.952 c1.52,1.562 3.625,0.22900000000000004 3.863,-1.6 c0.561,-4.311 -2.287,-9.081 -4.012,-12.923 c-0.934,-2.075 -1.783,-4.844 -3.4450000000000003,-6.48 c0.52,0.512 3.014,-3.08 3.158,-3.52 c2.141,-6.534 -2.832,-11.863 -9.326,-9.766 c-0.16400000000000003,0.05400000000000001 -0.29500000000000004,0.16100000000000003 -0.38900000000000007,0.29700000000000004 c-1.008,0.15600000000000003 -1.9100000000000001,0.8910000000000001 -1.904,2.203 c0.023000000000000007,5.627 -0.09400000000000003,11.252 -0.201,16.879 c-0.08200000000000002,4.343 -1.154,10.436 1.078,14.296 C382.110013671875,63.18000036621095 383.104013671875,63.17300036621094 383.489013671875,62.513000366210946 M385.426013671875,30.805000366210948 c3.434,0.7410000000000001 4.246,5.1370000000000005 1.479,7.176 c-0.465,0.3430000000000001 -1.043,0.8260000000000001 -1.574,1.3920000000000001 c0.06800000000000002,-2.678 0.11700000000000002,-5.356 0.14600000000000002,-8.034 C385.477013671875,31.14900036621094 385.459013671875,30.97200036621095 385.426013671875,30.805000366210948 " id="svg_13"/>
	<path fill="#231F20" d="M376.004013671875,61.574000366210925 c2.02,-0.789 1.738,-3.64 -0.512,-3.791 c-2.74,-0.18300000000000002 -5.3870000000000005,0.23800000000000002 -8.117,0.264 c0.32400000000000007,-0.003000000000000001 0.6000000000000001,-7.463 0.6450000000000001,-8.195 c0.08200000000000002,-1.319 0.125,-2.648 0.15600000000000003,-3.98 c2.09,0.09000000000000002 4.26,-0.36700000000000005 5.959,-1.292 c1.1480000000000001,-0.6260000000000001 0.5900000000000001,-2.352 -0.6460000000000001,-2.3810000000000002 c-1.4380000000000002,-0.03400000000000001 -2.83,0.009000000000000003 -4.258,0.23600000000000002 c-0.3320000000000001,0.05300000000000001 -0.6660000000000001,0.09300000000000003 -1,0.132 c0.03300000000000001,-3.289 0.05300000000000001,-6.585 0.28900000000000003,-9.836 c1.336,0.07800000000000001 2.668,0.03900000000000001 4.014,0.12100000000000001 c1.453,0.08700000000000002 2.7640000000000002,0.30200000000000005 4.133,-0.29800000000000004 c0.9470000000000001,-0.41400000000000003 1.1560000000000001,-2.042 0.3480000000000001,-2.684 c-2.516,-1.9889999999999999 -5.957,-2.6260000000000003 -9.102,-2.6670000000000003 c-0.8590000000000001,-0.011000000000000003 -1.5350000000000001,0.3940000000000001 -2,0.977 c-0.29700000000000004,0.21700000000000003 -0.525,0.524 -0.6250000000000001,0.931 c-2.219,9.181 -2.172,19.327 -2.992,28.739 C361.614013671875,65.68500036621094 371.705013671875,63.255000366210936 376.004013671875,61.574000366210925 " id="svg_14"/>
	<path fill="#231F20" d="M343.789013671875,57.479000366210926 c0.11100000000000002,1.469 0.07400000000000001,4.048 1.2970000000000002,5.125 c0.133,0.11600000000000002 0.275,0.19400000000000003 0.42200000000000004,0.24900000000000003 c0.35400000000000004,0.37500000000000006 0.8630000000000001,0.5940000000000001 1.4,0.41700000000000004 c10.777,-3.561 13.818,-12.51 12.652000000000001,-23.119 c-0.6990000000000002,-6.3420000000000005 -6.334,-15.975 -14.051,-11.486 c-0.43400000000000005,0.253 -0.7110000000000001,0.6410000000000001 -0.8540000000000001,1.067 c-0.36300000000000004,0.22800000000000004 -0.6390000000000001,0.5880000000000001 -0.7210000000000001,1.092 c-0.8790000000000001,5.483 -0.773,11.064 -0.6130000000000001,16.609 C343.420013671875,50.79100036621094 343.530013671875,54.12900036621093 343.789013671875,57.479000366210926 M350.848013671875,34.112000366210935 c2.33,1.187 2.842,4.496 3.258,6.776 c0.7300000000000001,4.014 0.6860000000000002,8.719 -1.09,12.452 c-1.033,2.174 -2.824,3.8 -4.699,5.292 c0.504,-3.481 0.05100000000000001,-8.01 0.10500000000000001,-10.092 c0.137,-5.074 0.4,-10.339 -0.3440000000000001,-15.398 C349.014013671875,33.41000036621094 349.955013671875,33.65600036621095 350.848013671875,34.112000366210935 " id="svg_15"/>
	<path fill="#231F20" d="M313.522013671875,62.330000366210925 c10.705,-3.008 10.146,-37.875 -0.7560000000000001,-33.982 c-1.645,0.5870000000000001 -2.057,2.233 -1.271,3.491 c-0.38700000000000007,0.777 -0.6480000000000001,1.6680000000000001 -0.934,2.34 c-1.77,4.17 -2.404,8.65 -2.973,13.103 c-0.44900000000000007,3.516 -1,7.268 0.22300000000000003,10.68 C308.569013671875,60.078000366210944 310.910013671875,63.062000366210924 313.522013671875,62.330000366210925 M312.514013671875,44.05100036621093 c0.16600000000000004,-2.874 0.551,-5.79 0.998,-8.63 c0.027000000000000007,-0.17500000000000002 0.05900000000000001,-0.6780000000000002 0.10700000000000001,-1.2730000000000001 c1.924,2.908 1.416,7.32 1.287,10.632 c-0.07600000000000001,1.988 -0.29300000000000004,3.92 -0.6290000000000001,5.881 c-0.10900000000000001,0.6440000000000001 -1.6230000000000002,4.945 -1.469,5.193 C311.086013671875,53.092000366210925 312.338013671875,47.11900036621094 312.514013671875,44.05100036621093 " id="svg_16"/>
	<path fill="#231F20" d="M268.641013671875,47.36100036621093 c-2.404,4.188 -2.977,9.229 0.38900000000000007,12.315 c4.02,3.6870000000000003 8.859,2.636 13.186,-0.05400000000000001 c3.926,-2.438 9.457,-6.488 9.455,-11.54 c0,-1.741 -2.441,-3.041 -3.68,-1.5230000000000001 c-2.8810000000000002,3.537 -5.943,6.679 -9.736,9.274000000000001 c-4.99,3.415 -8.623,-0.6250000000000001 -6.256,-5.918 c0.23,-0.511 0.8460000000000001,-1.417 1.6430000000000002,-2.368 c2.6310000000000002,-0.7090000000000001 5.141,-2.472 7.129,-4.046 c1.117,-0.8850000000000001 0.49600000000000005,-2.989 -0.8570000000000001,-3.246 c-2.598,-0.49000000000000005 -5.354,0.6810000000000002 -7.68,2.701 c-2.361,-0.43200000000000005 -2.746,-1.622 -1.146,-3.573 c0.6480000000000001,-1.098 1.42,-2.102 2.316,-3.013 c3.492,-3.914 7.881,-6.353 13.139,-6.319 c1.721,0.012000000000000002 1.6700000000000002,-2.501 0,-2.638 c-4.932,-0.401 -7.83,0.5710000000000001 -11.916,3.394 c-3.541,2.443 -6.34,5.6770000000000005 -7.98,9.652000000000001 C265.313013671875,43.687000366210924 265.803013671875,46.26000036621093 268.641013671875,47.36100036621093 " id="svg_17"/>
	<path fill="#231F20" d="M287.256013671875,42.356000366210935 c2.23,0.7670000000000001 4.523,0.49700000000000005 6.838,0.35400000000000004 c2.834,-0.17400000000000002 5.506,-0.138 8.076,-1.472 c1.322,-0.6860000000000002 1.383,-2.91 0,-3.5780000000000003 c-4.375,-2.117 -10.588000000000001,-0.47300000000000003 -14.914,1.264 C285.635013671875,39.57700036621094 285.498013671875,41.75200036621095 287.256013671875,42.356000366210935 " id="svg_18"/>
</g></g></svg>