<?xml version="1.0" encoding="UTF-8"?>
<svg width="400px" height="400px" viewBox="0 0 400 400" version="1.1" xmlns="http://www.w3.org/2000/svg" xmlns:xlink="http://www.w3.org/1999/xlink">
    <title>KFC_LOGO</title>
    <defs>
        <polygon id="path-1" points="0.0650406504 0.0693766938 399.926287 0.0693766938 399.926287 400 0.0650406504 400"></polygon>
    </defs>
    <g id="changes" stroke="none" stroke-width="1" fill="none" fill-rule="evenodd">
        <g id="KFC_LOGO">
            <g id="Group-4">
                <mask id="mask-2" fill="white">
                    <use xlink:href="#path-1"></use>
                </mask>
                <g id="Clip-2"></g>
                <path d="M47.4883469,397.559892 C39.0493225,397.559892 31.9176152,390.98103 31.2531165,382.585366 L2.4899729,20.0509485 C2.13224932,15.5501355 3.68455285,11.0644986 6.75121951,7.74525745 C9.82547425,4.41734417 14.1907859,2.50840108 18.7252033,2.50840108 L381.201084,2.50840108 C385.736585,2.50840108 390.099729,4.41734417 393.173984,7.74417344 C396.239566,11.0634146 397.795122,15.5501355 397.438482,20.0509485 L368.674255,382.585366 C368.007588,390.982114 360.875881,397.559892 352.43794,397.559892 L47.4883469,397.559892" id="Fill-1" fill="#FFFFFE" mask="url(#mask-2)"></path>
                <path d="M381.201084,4.94742547 C389.280217,4.94742547 395.64336,11.8211382 395.005962,19.8579946 L366.242818,382.393496 C365.672629,389.580488 359.661789,395.121951 352.43794,395.121951 L47.4883469,395.121951 C40.2634146,395.121951 34.2525745,389.580488 33.6834688,382.393496 L4.9203252,19.8579946 C4.28184282,11.8211382 10.6460705,4.94742547 18.7252033,4.94742547 L381.201084,4.94742547 Z M381.201084,0.0693766938 L18.7252033,0.0693766938 C13.5121951,0.0693766938 8.49647696,2.26449864 4.96151762,6.0899729 C1.43414634,9.90677507 -0.352303523,15.0666667 0.0585365854,20.2439024 L28.8216802,382.77832 C29.5869919,392.433604 37.7864499,400 47.4883469,400 L352.43794,400 C362.139837,400 370.339295,392.433604 371.105691,382.77832 L399.868835,20.2439024 C400.278591,15.0666667 398.491057,9.90677507 394.96477,6.0899729 C391.430894,2.26449864 386.414092,0.0693766938 381.201084,0.0693766938 L381.201084,0.0693766938 Z" id="Fill-3" fill="#0A0B09" mask="url(#mask-2)"></path>
            </g>
            <path d="M237.655285,323.444986 C236.568022,323.444986 235.722493,322.500813 235.841734,321.421138 C235.862331,321.23794 235.865583,321.179404 235.865583,321.17832 C236.162602,316.637398 234.60813,313.975068 229.508943,313.975068 L213.735501,313.993496 L209.519783,333.211924 L232.099729,333.211924 C233.261789,333.211924 234.124661,334.288347 233.874255,335.422222 L231.674797,345.332249 C231.490515,346.163686 230.753388,346.753388 229.904607,346.753388 L206.520325,346.753388 C206.520325,346.753388 203.921951,358.527913 203.828726,359.036314 C202.95935,362.836856 205.55664,364.81084 207.298645,365.658537 C207.387534,365.700813 207.476423,365.742005 207.566396,365.782114 C208.313279,366.117073 208.723035,366.928997 208.545257,367.727913 L207.344173,373.144715 C207.160976,373.971816 206.4271,374.561518 205.580488,374.561518 L178.083469,374.561518 C176.930081,374.561518 176.072629,373.493767 176.320867,372.36748 L188.299187,318.098645 C189.519783,313.310569 186.717615,311.362602 184.704607,310.595122 C184.636314,310.57019 184.566938,310.546341 184.500813,310.521409 C183.601084,310.201626 183.080759,309.261789 183.288889,308.328455 L184.345799,303.552304 C184.547425,302.644986 185.351762,302 186.281843,302 L247.417886,302 C248.577778,302 249.44065,303.075339 249.190244,304.20813 L245.234688,322.0271 C245.050407,322.855285 244.316531,323.444986 243.467751,323.444986 L237.655285,323.444986 M145.702981,303.541463 C145.902439,302.64065 146.700271,302 147.622764,302 L177.519783,302 C178.684011,302 179.550136,303.078591 179.296477,304.215718 L178.282927,308.81084 C178.108401,309.590244 177.463415,310.145257 176.669919,310.22981 C176.532249,310.244986 176.445528,310.253659 176.444444,310.253659 C174.19187,310.55393 170.123577,311.286721 166.790244,313.894851 L141.938211,334.562602 C141.936043,334.56477 141.936043,334.568022 141.937127,334.57019 L161.062331,360.453117 C164.768564,365.219512 166.59729,366.083469 170.324119,366.139837 C171.546883,366.163686 172.424932,367.310569 172.160434,368.502981 L171.116531,373.15664 C170.933333,373.97832 170.204878,374.561518 169.363686,374.561518 L154.470461,374.561518 C137.977236,374.563686 133.42439,367.330081 119.685637,342.21355 C119.682385,342.20813 119.674797,342.209214 119.673713,342.214634 L115.662873,360.536585 C115.053659,363.384282 117.438482,364.892141 119.185908,365.601084 C119.261789,365.633604 119.337669,365.661789 119.40813,365.688889 C120.243902,366.017344 120.716531,366.904065 120.521409,367.777778 L119.331165,373.149051 C119.146883,373.973984 118.41626,374.561518 117.571816,374.561518 L83.0590786,374.561518 C81.8449864,374.561518 80.9452575,373.438482 81.2065041,372.253659 L82.2222222,367.662873 C82.4054201,366.829268 83.100271,366.205962 83.9468835,366.113821 C83.9815718,366.108401 84.0151762,366.105149 84.0476965,366.100813 C87.2108401,365.735501 90.5289973,363.737669 92.5766938,353.95122 L100.403252,318.121409 C101.410298,313.347425 99.0233062,311.531707 96.9647696,310.725203 C96.9474255,310.718699 96.8260163,310.675339 96.6373984,310.612466 C95.6943089,310.290515 95.1414634,309.309485 95.3582656,308.334959 L96.4216802,303.549051 C96.6222222,302.642818 97.4254743,302 98.3512195,302 L131.17832,302 C132.326287,302 133.180488,303.062331 132.932249,304.184282 L131.886179,308.907317 C131.734417,309.596748 131.222764,310.15393 130.546341,310.36206 C130.465041,310.388076 130.380488,310.413008 130.295935,310.440108 C128.759892,310.939837 126.329539,312.199458 125.58374,315.258537 L121.21084,335.198916 C121.209756,335.20542 121.217344,335.209756 121.222764,335.20542 L146.685095,314.044444 C148.212466,312.784824 147.823306,311.101355 146.071545,310.4271 C146.071545,310.4271 146.067209,310.426016 146.060705,310.423848 C145.065583,310.122493 144.470461,309.103523 144.695935,308.088889 L145.702981,303.541463 M317.226016,303.502439 C318.317615,303.80271 318.979946,304.909485 318.732791,306.01626 L314.859621,323.44607 C314.675339,324.276423 313.938211,324.868293 313.087263,324.868293 L307.577236,324.868293 C306.536585,324.868293 305.708401,323.99458 305.762602,322.956098 C305.77561,322.729539 305.777778,322.637398 305.777778,322.631978 C306.042276,316.949593 302.453117,312.700271 294.330623,312.701355 C280.828184,312.703523 271.007046,323.783198 269.720325,338.339295 C268.392412,353.369106 278.895393,362.102981 293.439566,362.100813 C300.896477,362.099729 306.8,360.661247 310.109485,359.613008 C311.423306,359.197832 312.704607,360.336043 312.445528,361.691057 L310.736043,370.697019 C310.590786,371.465583 310.035772,372.091057 309.289973,372.327371 C306.310027,373.275881 297.941463,375.506775 285.132791,375.508944 C254.701355,375.514363 242.353388,358.008672 244.265583,340.165854 C245.965312,324.274255 256.478049,300.868293 297.934959,300.860704 C305.873171,300.859621 312.22439,302.131165 317.226016,303.502439 M264.920325,120.533333 C263.280217,129.256369 261.44607,133.633604 260.267751,139.015718 C259.04607,144.612466 256.641734,152.793496 254.308943,153.004878 C251.952304,153.713821 251.004878,150.987534 249.491599,153.005962 C248.589702,154.207046 247.891599,155.792954 247.088347,156.81626 C246.576694,157.487263 246.069377,158.98103 246.061789,159.795122 C246.061789,161.37019 245.975068,166.455285 244.565854,173.123035 C242.442276,183.186992 238.582114,190.518157 234.57019,195.145799 C226.887805,204.006504 219.692141,205.433062 218.835772,205.885095 C217.735501,206.468293 216.068293,206.123577 215.523035,205.862331 C214.97019,205.61084 214.547425,204.946341 213.596748,204.017344 C212.616802,203.101355 212.276423,204.494309 212.239566,204.849864 C212.201626,205.182656 212.737127,209.37561 211.668293,211.271545 C209.36477,215.352846 207.149051,215.707317 205.915447,220.78916 C205.500271,222.505149 205.789702,225.097019 203.739837,223.923035 C198.729539,221.061247 191.55122,213.311653 190.065041,205.798374 C189.613008,203.511111 190.035772,200.95935 191.430894,196.609214 C192.237398,194.055285 192.809756,191.213008 192.809756,189.576152 C192.809756,186.672087 191.674797,184.210298 192.809756,183.957724 C194.913821,183.490515 195.872087,188.935501 196.849864,188.371816 C198.548509,187.392954 197.286721,181.64336 197.286721,181.64336 C197.286721,181.64336 196.588618,180.007588 193.608672,179.308401 C191.893767,178.907317 191.355014,177.623848 193.18374,176.726287 C194.548509,176.056369 196.134417,175.176152 197.982656,175.452575 C210.336043,177.203252 213.890515,174.720867 218.886721,173.372358 C219.867751,173.113279 220.445528,172.998374 221.214092,173.361518 C221.977236,173.715989 224.028184,174.83794 224.445528,175.891599 C224.868293,176.935501 224.430352,181.03523 225.085095,184.119241 C225.752846,187.218428 227.929539,184.403252 228.470461,183.17832 C229.017886,181.963144 229.57832,178.966938 229.691057,178.204878 C229.811382,177.447154 230.446612,174.260163 231.590244,173.310569 C233.853659,171.431978 234.650407,168.961518 235.015718,167.996748 C235.389702,167.028726 235.980488,164.04878 235.875339,159.694309 C235.766938,155.347425 234.98103,154.875881 233.931707,153.942547 C232.894309,153.011382 231.64878,153.191328 229.001626,150.76748 C226.641734,148.601626 224.698103,145.103523 222.990786,142.900813 C221.278049,140.704607 218.440108,138.343631 215.198916,137.55122 C211.971816,136.7729 213.311653,139.749593 213.485095,140.58645 C213.620596,141.176152 214.380488,143.817886 213.302981,144.688347 C212.249322,145.55664 205.720325,149.945799 199.897019,148.423848 C192.957182,146.611382 190.55935,142.749051 190.41626,139.015718 C190.316531,136.371816 191.58374,133.821138 193.164228,130.790244 C194.089973,129.016802 194.462873,126.058537 194.834688,123.220596 C195.130623,120.949593 195.738753,117.667209 196.233062,116.499729 C196.588618,115.657453 197.425474,114.741463 199.308401,114.849864 C201.169648,114.95393 202.391328,115.880759 202.731707,117.487263 C203.938211,123.069919 205.905691,124.479133 206.572358,124.932249 C207.246612,125.382114 208.506233,124.479133 208.99729,124.152846 C209.493767,123.830894 210.75664,122.55393 210.359892,121.868835 C209.757182,120.807588 209.42439,120.171274 209.291057,119.549051 C209.061247,118.486721 210.390244,118.615718 210.659079,118.828184 C212.834688,120.542005 214.885637,120.692683 218.644986,121.319241 C225.220596,122.415176 226.16477,119.991328 230.681843,120.775068 C231.268293,120.876965 232.381572,121.365854 232.745799,122.044444 C233.044986,122.62439 233.59458,123.958808 234.146341,124.192954 C234.693767,124.40542 236.034688,124.487805 236.726287,124.612466 C237.682385,124.7729 239.395122,124.666667 239.106775,126.433604 C238.370732,131.168564 232.906233,132.474797 230.352304,132.913821 C229.297561,133.094851 228.814092,133.181572 228.642818,133.332249 C228.089973,133.817886 228.069377,135.300813 228.705691,136.259079 C229.15664,136.933333 231.222764,136.97561 234.049864,136.43252 C236.999458,135.866667 239.831978,134.44336 242.068293,130.957182 C244.43794,127.265041 245.740921,119.136043 246.01626,117.617344 C246.284011,116.100813 246.892141,113.560976 247.727913,113.04065 C248.55393,112.521409 252.402168,111.351762 252.944173,111.447154 C253.590244,111.558808 254.059621,111.871003 254.364228,113.35935 C254.666667,114.862873 254.101897,123.820054 254.091057,125.170732 C254.075881,126.612466 254.814092,126.599458 255.226016,126.409756 C256.123577,125.995664 258.519241,124.4 259.061247,122.555014 C259.462331,121.184824 258.307859,119.191328 258.887805,117.297561 C259.790786,114.344715 260.679675,113.558808 261.295393,113.617344 C265.050407,113.976152 265.81897,115.620596 264.920325,120.391328 M211.702981,168.690515 C210.307859,169.201084 206.276423,170.138753 204.324119,170.256911 C202.354472,170.36748 196.110569,170.791328 195.062331,170.741463 C193.77561,170.666667 192.03794,170.039024 190.625474,168.747967 C190.340379,168.485637 190.031436,167.584824 191.18374,167.564228 C193.325745,167.526287 196.940921,166.38374 209.39187,167.437398 C210.723035,167.546883 211.352846,167.60542 211.668293,167.635772 C211.99458,167.669377 213.097019,168.19729 211.702981,168.690515 M181.080759,163.63252 C175.020054,163.55664 172.215718,161.298645 171.783198,160.62439 C171.365854,159.970732 172.065041,159.463415 172.698103,159.260705 C174.130081,158.806504 176.672087,157.521951 177.704065,156.738211 C178.740379,155.965312 181.596748,154.18645 183.038482,153.258537 C183.717073,152.815176 187.614092,151.118699 189.892683,152.706775 C193.311653,155.092683 196.506233,156.687263 202.354472,156.329539 C206.117073,156.098645 206.03252,153.063415 209.093767,152.096477 C211.860163,151.224932 212.391328,150.546341 213.257453,150.039024 C214.375068,149.815718 215.198916,149.533875 216.41084,150.662331 C217.946883,152.092141 218.502981,153.219512 220.280759,155.229268 C222.714363,157.976152 225.398374,159.256369 226.22981,159.41897 C227.055827,159.58916 227.650949,160.261247 227.659743,160.538753 C227.667209,160.81084 227.327913,161.666125 224.873713,162.36748 C216.682927,164.714363 207.81355,163.209756 203.247696,161.385366 C200.930081,160.459621 198.677507,160.207046 196.134417,161.455827 C193.571816,162.712195 186.737127,163.701897 181.080759,163.63252 M178.169106,197.323577 C173.526287,197.466667 161.389702,190.142005 156.095393,169.350678 C154.721951,164.003252 158.094309,159.663957 160.185366,158.918157 C161.422222,158.465041 162.072629,158.321951 162.488889,158.265583 C162.918157,158.212466 165.031978,158.225474 164.95935,160.612466 C164.885637,162.547425 166.492141,178.669919 170.700271,184.505149 C171.744173,185.952304 172.710027,186.00542 173.18916,184.727371 C173.629268,183.539295 174.359892,182.008672 174.595122,181.426558 C174.76748,181.007046 176.299187,178.665583 176.753388,180.44336 C177.718157,184.220054 179.980488,191.991328 180.932249,193.997832 C182.509485,197.325628 179.910027,197.269377 178.169106,197.323577 M153.773442,135.282385 C153.447154,133.881843 154.070461,131.78645 157.368022,133.900271 C157.895935,134.239566 159.444986,134.943089 161.16748,135.437398 C162.209214,135.737669 162.885637,135.298645 163.179404,134.540921 C163.485095,133.789702 164.340379,132.290515 162.872629,131.571816 C161.412466,130.842276 157.798374,130.21355 155.735501,125.134959 C155.36477,124.228726 155.98916,123.185908 156.569106,122.918157 C157.155556,122.655827 157.879675,122.788076 158.556098,123.42981 C159.2271,124.059621 160.668835,125.450407 161.958808,125.501355 C163.147967,125.557724 163.342005,125.075339 163.582656,124.795664 C164.58103,123.673713 167.444986,119.487263 173.382114,120.21355 C175.828726,120.513821 178.087805,121.057995 178.911653,121.119783 C179.499187,121.157724 181.128455,121.231436 182.688347,120.937669 C184.466125,120.605962 187.119783,120.054201 185.821138,121.555556 C184.765312,122.773984 183.882927,123.281301 184.807588,124.603794 C184.855285,124.672087 184.902981,124.736043 184.947425,124.798916 C185.782114,125.9729 185.803794,127.537127 184.956098,128.700271 L184.853117,128.849864 C183.541463,130.55393 180.828184,132.515989 175.219512,132.871545 C172.664499,133.033062 172.505149,132.939837 172.449864,134.401084 C172.430352,134.96477 172.43794,135.261789 172.519241,135.655285 C172.673171,136.390244 173.143631,136.694851 174.918157,136.80542 C176.203794,136.884553 178.558266,136.631978 178.561518,136.630894 C179.140379,136.457453 179.822222,136.826016 179.450407,137.307317 C179.39187,137.379946 179.15664,137.732249 179.115447,137.78645 C177.842818,139.430894 177.44607,140.934417 177.327913,141.831978 C177.2271,142.59187 176.788076,143.272629 176.114905,143.622764 C176.105149,143.6271 176.097561,143.631436 176.087805,143.635772 C175.269377,144.056369 171.960976,144.770732 169.356098,146.921409 C166.764228,149.071003 161.346341,150.84336 159.016802,148.200542 C156.685095,145.565312 154.785908,139.670461 153.773442,135.282385 M152.089973,109.235772 C151.360434,109.313821 150.742547,108.869377 149.946883,108.697019 C149.02439,108.496477 148.459621,108.777236 148.076965,108.269919 C147.738753,107.747425 147.800542,107.255285 148.328455,107.054743 C148.854201,106.857453 149.23794,107.004878 149.77019,106.901897 C150.853117,106.697019 152.172358,105.457995 153.149051,106.83252 C153.779946,107.724661 153.239024,109.112195 152.089973,109.235772 M143.090515,142.277507 C140.749051,140.718699 140.874797,138.676423 140.279675,136.667751 C139.015718,132.406504 137.657453,127.274797 136.483469,122.911653 C135.772358,120.274255 135.591328,114.083469 139.1729,114.083469 C140.976694,114.083469 142.321951,114.649322 142.898645,116.347967 C144.183198,120.130081 141.76477,119.472087 142.38374,123.940379 C142.824932,127.100271 143.427642,130.214634 144.426016,135.58374 C144.884553,138.057453 145.691057,144.009756 143.516531,142.561518 M136.194038,81.5577236 C137.500271,78.0249322 139.873171,75.0157182 141.493767,72.8899729 C142.976694,70.9452575 142.276423,68.3794038 141.518699,66.0791328 C141.027642,63.9620596 139.667209,61.7712737 139.459079,61.1913279 C139.308401,60.7859079 139.305149,60.4585366 139.434146,60.1723577 C139.530623,60.1073171 139.61084,60.0542005 139.710569,59.9902439 L142.577778,59.7452575 C150.78374,58.6948509 158.020596,55.8135501 160.207046,54.5864499 C161.283469,53.9826558 162.426016,53.5078591 163.59458,53.1111111 C164.96477,52.6471545 166.381572,52.1799458 167.800542,51.9934959 C168.873713,51.8178862 170.145257,51.6520325 171.23252,51.5317073 C172.855285,51.3474255 175.420054,52.4845528 174.850949,52.8216802 C173.476423,53.6455285 167.100271,55.1208672 161.490515,61.8178862 C158.053117,65.9132791 157.255285,68.4466125 156.096477,70.3327913 C154.922493,72.2254743 153.981572,72.6753388 152.331707,74.100813 C151.525203,74.7891599 149.880759,76.2308943 149.075339,78.5246612 C148.261247,80.8401084 145.128455,88.9181572 144.719783,101.746341 C144.675339,103.235772 144.41626,104.808672 143.004878,105.348509 C143.004878,105.348509 142.99729,105.350678 142.994038,105.352846 C141.83523,105.822222 140.895393,106.588618 140.701355,105.752846 C139.95664,102.936585 138.230894,96.8650407 137.508943,93.0178862 C137.280217,91.804878 137.011382,90.604878 136.724119,89.403794 C135.938211,86.1268293 135.581572,83.2151762 136.194038,81.5577236 M161.149051,112.752304 C159.657453,113.699729 158.195122,114.795664 157.082927,115.515447 C155.725745,116.41084 153.816802,115.552304 154.375068,113.649864 C154.649322,112.725203 155.963144,110.355556 158.17019,109.936043 C158.458537,109.877507 159.552304,109.669377 160.468293,109.558808 C161.537127,109.444986 162.675339,109.347425 163.255285,109.322493 C164.819512,109.255285 164.989702,110.509485 163.929539,111.15664 C163.226016,111.590244 162.139837,112.125745 161.149051,112.752304 M163.206504,115.555556 C163.606504,115.230352 163.782114,115.229268 165.128455,114.488889 C166.085637,113.958808 167.17832,113.302981 168.281843,112.587534 C170.280759,111.287805 174.065041,109.943631 175.671545,109.959892 C176.83252,109.973984 178.861789,110.474797 179.941463,111.652033 C181.068835,112.881301 181.376694,114.311111 179.905691,114.062873 C178.44878,113.812466 176.900813,113.41897 174.096477,114.062873 C170.95935,114.779404 168.829268,115.981572 167.315989,116.659079 C165.768022,117.37561 164.200542,117.547967 163.682385,117.524119 C163.182656,117.490515 161.758266,116.728455 163.206504,115.555556 M186.373984,143.340921 C186.740379,144.013008 186.858537,145.144715 186.754472,145.61084 C186.64607,146.183198 184.636314,146.931165 182.963686,144.43252 C181.295393,141.947967 182.078049,138.892141 183.071003,137.692141 C184.643902,135.765854 187.051491,137.165312 186.704607,137.877507 C185.500271,140.347967 186.035772,142.672087 186.373984,143.340921 M236.535501,118.948509 C235.920867,119.259621 233.6,118.481301 232.958266,118.121409 C231.674797,117.401626 230.760976,116.892141 229.033062,115.416802 C227.887263,114.44878 225.800542,113.993496 223.822222,114.087805 C222.308943,114.161518 220.802168,114.486721 219.640108,114.757724 C218.494309,115.034146 218.406504,113.993496 218.747967,113.6 C219.091599,113.208672 220.700271,111.734417 224.211382,110.815176 C224.721951,110.680759 225.710569,110.725203 226.209214,110.779404 C227.672629,110.943089 229.425474,111.916531 230.686179,113.141463 C231.945799,114.375068 234.495393,116.546341 235.874255,117.38645 C236.528997,117.779946 237.990244,118.205962 236.535501,118.948509 M235.102439,113.142547 C235.102439,113.142547 232.931165,111.659621 232.236314,110.454201 C231.893767,109.857995 231.971816,109.360434 232.891057,109.351762 C236.146341,109.319241 239.127371,109.241192 240.577778,110.458537 C241.633604,111.347425 241.662873,113.203252 241.144715,114.401084 C240.546341,115.769106 239.352846,115.38103 238.672087,115.283469 C237.991328,115.180488 235.102439,113.142547 235.102439,113.142547 M251.420054,108.269919 C250.926829,108.802168 250.491057,108.482385 249.475339,108.733875 C248.682927,108.927913 248.156098,109.374526 247.426558,109.309485 C246.274255,109.20542 245.707317,107.827642 246.321951,106.924661 C247.274797,105.532791 248.617886,106.745799 249.702981,106.935501 C250.236314,107.028726 250.617886,106.872629 251.147967,107.062331 C251.678049,107.249864 251.750678,107.740921 251.420054,108.269919 M157.57832,45.3506775 C158.075881,44.5810298 159.283469,43.4569106 160.489973,42.5853659 C161.75393,41.6813008 167.971816,37.0222222 173.748509,35.2628726 C174.819512,34.9441734 175.093767,34.7826558 175.777778,34.6178862 C176.643902,34.3924119 177.377778,32.5279133 175.576152,32.2558266 C173.683469,31.9826558 172.912737,32.1062331 171.904607,32.1387534 C170.896477,32.1615176 170.409756,31.6205962 171.141463,30.8271003 C171.885095,30.0292683 173.223848,29.2151762 175.579404,28.2699187 C180.721951,26.2222222 189.836314,25.1273713 194.086721,24.7501355 C199.63252,24.2720867 200.303523,24.2894309 203.911111,24.5669377 C207.292141,24.8216802 209.943631,25.4514905 211.198916,25.6726287 C217.563144,26.8238482 224.896477,29.7723577 231.414634,33.3506775 C234.846612,35.3864499 238.152846,37.6596206 241.231436,40.0585366 C250.571274,47.3398374 261.298645,61.1891599 259.733333,90.3598916 C259.546883,93.803794 259.139295,95.7138211 258.913821,96.5452575 C258.680759,97.3897019 257.563144,98.8314363 256.971274,96.9235772 C255.041734,90.6829268 252.55935,79.6823848 246.911653,70.995122 C246.126829,69.7842818 244.912737,69.897019 245.033062,71.1728997 C245.077507,71.7051491 245.338753,77.2693767 245.201084,78.3436314 C244.286179,85.5100271 246.481301,82.7186992 249.714905,90.4065041 C250.716531,92.7848238 252.00542,97.4861789 252.328455,100.518157 C252.411924,101.280217 252.514905,102.16477 252.534417,103.012466 C252.556098,104.083469 252.024932,104.155014 252.024932,104.155014 C249.812466,104.147425 245.955556,103.097019 243.874255,103.030894 C241.507859,102.955014 225.081843,102.78916 218.909485,103.275881 C212.731707,103.746341 209.36477,105.969648 205.867751,108.83252 C205.287805,109.308401 204.460705,109.751762 203.995664,109.984824 C203.761518,110.101897 203.501355,110.136585 203.245528,110.092141 C202.961518,110.042276 202.500813,109.955556 201.771274,109.803794 C200.262331,109.493767 198.43794,109.371274 196.963686,109.822222 C195.491599,110.263415 194.797832,110.642818 193.206504,109.720325 C190.940921,108.395664 187.465583,103.106775 175.338753,103.009214 C168.467209,102.955014 159.454743,102.861789 154.148509,103.095935 C152.433604,103.170732 151.539295,103.363686 151.099187,103.352846 C151.062331,103.15122 151.052575,102.870461 151.050539,102.81626 C150.961518,93.1317073 157.281301,95.2791328 158.00542,92.7631436 C159.810298,86.4910569 160.231978,71.403794 171.185908,62.1420054 C176.422764,57.7149051 179.145799,57.5295393 184.00542,57.5295393 C189.24336,57.5295393 194.352304,58.896477 196.958266,60.1875339 C199.031978,61.2119241 200.059621,61.898103 200.874797,61.2943089 C201.688889,60.6753388 203.868835,58.699187 204.76748,58.0205962 C205.670461,57.3279133 205.330081,56.2525745 204.478049,55.5479675 C203.658537,54.8845528 195.887263,45.1111111 183.975068,43.1414634 C181.245528,42.6872629 179.230352,42.2731707 176.75122,42.2666667 C175.411382,42.2168022 174.222222,42.2102981 171.108943,42.5875339 C166.549593,43.1414634 160.588618,45.6791328 156.753388,47.201084 C156.546341,46.9810298 157.338753,45.695393 157.57832,45.3506775 M153.64336,181.180488 C153.761518,186.182114 156.661247,199.387534 173.43523,211.918699 C180.430352,217.142547 183.63794,219.500271 184.560434,220.139837 L184.556098,220.177778 C185.016802,220.499729 182.075881,220.424932 181.267209,220.502981 C179.953388,220.627642 175.480759,220.222222 171.900271,220.884553 C168.669919,221.480759 169.108943,222.259079 168.788076,224.596206 C168.533333,226.447696 168.771816,229.383198 168.679675,231.886179 C168.583198,234.386992 168.445528,236.165854 169.505691,237.376694 C170.550678,238.566938 171.21084,238.757724 175.644444,238.483469 C179.861247,238.225474 191.537127,238.216802 192.944173,237.930623 C194.750136,237.560976 194.461789,238.215718 193.421138,240.449864 C191.63794,244.277507 185.822222,261.826558 176.78374,278.501897 C175.516531,280.83794 179.079675,279.733333 182.120325,281.198916 C187.617344,283.850407 187.437398,284.588618 188.881301,281.822222 C190.446612,278.824932 198.37832,260.157182 199.606504,254.393496 C199.76477,253.641192 200.087805,252.989702 200.212466,254.119241 C200.300271,254.933333 200.417344,278.514905 199.75935,285.954472 C199.724661,286.347967 199.820054,286.758808 200.096477,287.042818 C200.493225,287.450407 201.090515,287.619512 201.598916,287.737669 C201.604336,287.737669 201.608672,287.737669 201.614092,287.737669 C204.343631,286.826016 207.649864,286.156098 210.456369,286.620054 C210.705691,286.590786 210.943089,286.536585 211.170732,286.465041 C211.321409,286.339295 211.456911,286.19187 211.553388,286.015176 C211.772358,285.619512 211.884011,285.171816 211.981572,284.732791 C211.990244,284.699187 211.997832,284.665583 212.004336,284.62981 C212.140921,284.003252 212.252575,283.368022 212.320867,282.729539 C212.359892,282.352304 212.386992,281.9729 212.41084,281.593496 C212.441192,281.103523 212.462873,280.611382 212.479133,280.119241 C212.500813,279.526287 212.514905,278.932249 212.523577,278.340379 C212.533333,277.655285 212.537669,276.97019 212.537669,276.285095 C212.537669,275.521951 212.530081,274.754472 212.519241,273.98916 C212.506233,273.154472 212.486721,273.433062 212.462873,272.598374 C212.436856,271.705149 212.404336,270.81084 212.366396,269.918699 C212.326287,268.976694 212.279675,268.034688 212.225474,267.091599 C212.171274,266.112737 212.109485,265.134959 212.039024,264.155014 C211.96748,263.150136 211.888347,262.144173 211.798374,261.138211 C211.709485,260.115989 211.611924,259.094851 211.503523,258.073713 C211.395122,257.047154 211.276965,256.020596 211.149051,254.996206 C211.021138,253.973984 210.883469,252.955014 210.731707,251.937127 C210.584282,250.930081 210.423848,249.926287 210.249322,248.925745 C210.079133,247.947967 209.894851,247.527371 209.696477,246.55393 C209.502439,245.613008 209.295393,244.675339 209.068835,243.740921 C208.853117,242.84878 208.61897,241.959892 208.364228,241.076423 C208.160434,240.376152 207.944715,239.676965 207.713821,238.978862 C207.672629,238.868293 207.484011,237.911111 207.510027,237.787534 C207.580488,237.442818 208.014092,237.691057 208.487805,237.6 C208.487805,237.6 208.710027,237.557724 208.835772,237.538211 C211.837398,237.134959 217.062331,237.403794 218.241734,237.452575 C219.403794,237.487263 225.343089,238.053117 227.016802,238.207046 C228.677507,238.366396 230.695935,238.753388 230.607046,233.709485 C230.583198,232.364228 230.578862,231.564228 230.583198,230.310027 C230.585366,230.140921 230.585366,229.965312 230.585366,229.799458 C230.589702,229.480759 230.590786,229.16748 230.594038,228.866125 C230.599458,228.680759 230.599458,228.513821 230.603794,228.336043 C230.604878,228.163686 230.607046,227.993496 230.609214,227.828726 C230.611382,227.674797 230.614634,227.516531 230.616802,227.373442 C230.626558,227.100271 230.631978,226.83794 230.642818,226.598374 C230.644986,226.522493 230.644986,226.454201 230.649322,226.381572 C230.651491,226.198374 230.659079,226.031436 230.667751,225.876423 C230.669919,225.798374 230.673171,225.722493 230.677507,225.64878 C230.682927,225.505691 230.691599,225.390786 230.697019,225.285637 C230.701355,225.252033 230.701355,225.203252 230.705691,225.1729 C230.719783,225.022222 230.727371,224.857453 230.732791,224.678591 C230.771816,223.449322 230.612466,221.19458 228.281843,220.595122 C225.597832,219.924119 220.879133,219.762602 216.634146,220.132249 C216.042276,220.185366 215.911111,220.132249 216.093225,219.966396 L216.097561,219.928455 C217.012466,219.276965 223.139295,215.890515 230.148509,209.617344 C237.860163,202.700271 241.539295,199.023306 243.897019,194.018428 C243.897019,194.018428 252.336043,177.645528 251.912195,163.78103 C251.826558,160.98103 252.277507,161.21626 254.019512,161.267209 C254.542005,161.282385 256.536585,161.142547 257.609756,160.431436 C261.190244,159.615176 264.352304,147.394038 264.352304,147.394038 C264.352304,147.394038 269.728997,128.833604 271.031978,121.244444 C272.19187,114.492141 271.917615,110.547425 267.798374,108.543089 L267.108943,108.152846 C266.798916,107.977236 266.644986,107.614092 266.739295,107.270461 C266.818428,106.983198 266.904065,106.64607 266.946341,106.393496 C268.95935,99.399458 272.558266,90.5463415 271.742005,86.9582656 C271.601084,85.9273713 270.726287,85.5924119 270.423848,85.3864499 C270.004336,85.103523 268.407588,83.3235772 267.964228,82.0715447 C267.899187,81.8894309 267.874255,81.697561 267.856911,81.5056911 C266.721951,68.300271 262.028184,51.7322493 248.049864,37.304065 C248.029268,37.2899729 247.089431,36.4271003 246.515989,35.904607 C245.318157,34.8260163 243.787534,33.4861789 242.026016,32.1647696 C238.303523,29.3821138 235.333333,27.2466125 229.211924,24.1907859 C228.739295,23.9577236 224.142005,21.8655827 217.348509,20.203794 C216.713279,20.0336043 216.071545,19.8677507 215.425474,19.7159892 C214.4271,19.4807588 212.868293,19.1934959 211.091599,18.9506775 C206.906233,18.2948509 202.257995,17.9436314 197.425474,18.2406504 L197.425474,18.2428184 C196.849864,18.2710027 196.176694,18.3056911 195.998916,18.3078591 C195.710569,18.3121951 195.407046,18.3273713 195.112195,18.3392954 C194.78374,18.3523035 194.462873,18.3577236 194.121409,18.3718157 C193.099187,18.4205962 191.749593,18.5756098 190.333875,18.7772358 C188.047696,19.1078591 185.595664,19.5653117 184.084553,19.9197832 C182.39458,20.3306233 180.114905,20.8065041 177.266125,21.6227642 C176.096477,21.9642276 174.918157,22.3284553 173.747425,22.7078591 C173.416802,22.8119241 173.088347,22.9138211 172.76206,23.0200542 C171.497019,23.4373984 170.225474,23.8688347 168.939837,24.3317073 C168.007588,24.6579946 164.046612,26.3739837 163.184824,26.7707317 C162.771816,26.9626016 162.20271,27.2065041 161.588076,27.4558266 C158.795664,28.3403794 158.209214,29.9555556 158.108401,30.8422764 C158.04336,31.4135501 157.914363,31.9794038 157.670461,32.498645 C153.646612,41.0493225 144.184282,41.8775068 140.426016,42.0650407 C139.443902,42.1116531 138.574526,42.2558266 138.885637,43.2108401 C139.686721,45.6661247 144.112737,50.2439024 146.82168,51.0753388 C146.782656,51.4666667 144.501897,51.9609756 144.022764,52.0888889 C142.932249,52.3728997 138.447696,51.9794038 138.225474,52.0238482 C138.205962,52.0249322 138.190786,52.0281843 138.172358,52.0292683 C133.086179,52.4574526 131.524119,55.9219512 131.067751,57.5631436 C130.925745,58.0726287 131.007046,58.6211382 131.298645,59.0644986 C132.420596,60.7750678 133.602168,62.1691057 134.492141,64.4271003 C134.501897,64.4498645 134.511653,64.4758808 134.520325,64.500813 C134.75122,65.0948509 134.962602,65.7506775 135.146883,66.4845528 C135.255285,67.4525745 136.029268,68.4607046 135.050407,70.3588076 C133.315989,73.7203252 128.979946,74.7707317 128.331707,78.1105691 C127.40813,82.8596206 129.047154,85.9674797 130.84336,93.8146341 C132.075881,99.195664 133.407046,104.75664 134.359892,107.279133 C134.409756,107.412466 134.331707,107.550136 134.192954,107.577236 C133.811382,107.64878 133.15122,107.787534 132.928997,107.862331 C130.417344,108.861789 129.628184,110.839024 129.340921,114.706775 C128.711111,123.257453 135.025474,136.450949 136.982114,147.752846 C137.641192,151.566396 139.398374,157.678049 142.321951,160.179946 C142.99729,160.757724 144.408672,161.127371 145.283469,161.280217 C147.568564,161.675881 148.561518,160.22981 148.691599,162.525745 C148.719783,163.00271 148.882385,164.290515 148.902981,165.01897 C149.295393,173.129539 153.64336,181.180488 153.64336,181.180488" id="Fill-5" fill="#0A0B09"></path>
            <path d="M102.419512,15.2758808 L22.1615176,15.2758808 C18.2428184,15.2758808 15.1555556,18.6189702 15.4623306,22.5268293 L36.002168,281.284553 L102.419512,281.284553 L102.419512,15.2758808" id="Fill-6" fill="#D02431"></path>
            <path d="M377.765854,15.2758808 L297.507859,15.2758808 L297.507859,281.284553 L363.925203,281.284553 L384.463957,22.5268293 C384.7729,18.6189702 381.684553,15.2758808 377.765854,15.2758808" id="Fill-7" fill="#D02431"></path>
        </g>
    </g>
</svg>